<svg width="26" height="26" viewBox="0 0 26 26" fill="none" xmlns="http://www.w3.org/2000/svg">
<path d="M24.6693 10.2707L22.8444 9.96114C22.6543 9.3474 22.4099 8.75538 22.1111 8.19052L23.1865 6.68602C23.6428 6.04512 23.5722 5.17067 23.0127 4.61667L21.3942 2.99812C21.09 2.69396 20.6881 2.52559 20.259 2.52559C19.9223 2.52559 19.6018 2.62879 19.3303 2.82432L17.8203 3.89973C17.2338 3.59014 16.62 3.33487 15.9845 3.14477L15.6804 1.34155C15.55 0.564863 14.882 0 14.0944 0H11.8078C11.0203 0 10.3522 0.564863 10.2219 1.34155L9.90683 3.18822C9.29852 3.37832 8.7065 3.62816 8.14163 3.93232L6.64801 2.8569C6.37644 2.66137 6.05055 2.55818 5.71381 2.55818C5.28473 2.55818 4.87738 2.72655 4.57865 3.03071L2.95467 4.64926C2.40067 5.20326 2.32463 6.07771 2.78087 6.71861L3.86714 8.24483C3.56841 8.81512 3.32943 9.40714 3.14477 10.0209L1.34155 10.325C0.564863 10.4554 0 11.1235 0 11.911V14.1976C0 14.9852 0.564863 15.6532 1.34155 15.7836L3.18822 16.0986C3.37832 16.7069 3.62816 17.2989 3.93232 17.8638L2.86234 19.352C2.4061 19.9929 2.47671 20.8673 3.03614 21.4214L4.65469 23.0399C4.95885 23.3441 5.36077 23.5124 5.78985 23.5124C6.12659 23.5124 6.44704 23.4092 6.71861 23.2137L8.24483 22.1274C8.7934 22.4153 9.36913 22.6488 9.96115 22.8335L10.2653 24.6585C10.3957 25.4351 11.0637 26 11.8513 26H14.1433C14.9309 26 15.5989 25.4351 15.7293 24.6585L16.0389 22.8335C16.6526 22.6434 17.2446 22.399 17.8095 22.1003L19.314 23.1757C19.5855 23.3712 19.9114 23.4744 20.2482 23.4744C20.6773 23.4744 21.0792 23.306 21.3833 23.0019L23.0019 21.3833C23.5559 20.8293 23.6319 19.9549 23.1757 19.314L22.1003 17.8041C22.399 17.2338 22.6488 16.6417 22.8335 16.0334L24.6585 15.7293C25.4351 15.5989 26 14.9309 26 14.1433V11.8567C26.0109 11.0691 25.446 10.4011 24.6693 10.2707ZM24.5444 14.1433C24.5444 14.2139 24.4955 14.2737 24.4249 14.2845L22.1437 14.6647C21.8559 14.7136 21.6277 14.9254 21.5571 15.2024C21.3507 16.0008 21.0357 16.7667 20.6121 17.4782C20.4654 17.728 20.4763 18.0376 20.6447 18.2766L21.9862 20.1667C22.0242 20.221 22.0188 20.3025 21.9699 20.3514L20.3514 21.9699C20.3134 22.0079 20.2753 22.0134 20.2482 22.0134C20.2156 22.0134 20.1884 22.0025 20.1667 21.9862L18.282 20.6447C18.0485 20.4763 17.7334 20.4654 17.4836 20.6121C16.7721 21.0357 16.0063 21.3507 15.2079 21.5571C14.9254 21.6277 14.7136 21.8613 14.6701 22.1437L14.2845 24.4249C14.2737 24.4955 14.2139 24.5444 14.1433 24.5444H11.8567C11.7861 24.5444 11.7263 24.4955 11.7155 24.4249L11.3353 22.1437C11.2864 21.8559 11.0746 21.6277 10.7976 21.5571C10.0209 21.3562 9.27136 21.0466 8.57071 20.6447C8.45665 20.5795 8.3263 20.5469 8.20138 20.5469C8.05473 20.5469 7.90265 20.5903 7.77773 20.6827L5.87675 22.0351C5.84959 22.0514 5.82244 22.0623 5.79528 22.0623C5.77355 22.0623 5.7301 22.0568 5.69208 22.0188L4.07353 20.4003C4.02465 20.3514 4.01922 20.2753 4.05724 20.2156L5.39336 18.3418C5.56173 18.1028 5.57259 17.7878 5.42595 17.5379C5.0023 16.8318 4.67642 16.066 4.47002 15.2676C4.39398 14.9906 4.16587 14.7788 3.88343 14.7299L1.58596 14.3388C1.51535 14.328 1.46647 14.2682 1.46647 14.1976V11.911C1.46647 11.8404 1.51535 11.7807 1.58596 11.7698L3.85085 11.3896C4.13871 11.3407 4.37226 11.1289 4.44287 10.8465C4.64383 10.048 4.95342 9.27679 5.37163 8.56528C5.51828 8.31544 5.50199 8.00585 5.33361 7.7723L3.9812 5.87132C3.94318 5.817 3.94861 5.73553 3.99749 5.68665L5.61604 4.0681C5.65406 4.03008 5.69208 4.02465 5.71924 4.02465C5.75183 4.02465 5.77899 4.03551 5.80071 4.05181L7.67454 5.38793C7.91352 5.5563 8.22854 5.56716 8.47838 5.42051C9.18446 4.99687 9.95028 4.67098 10.7487 4.46459C11.0257 4.38855 11.2375 4.16043 11.2864 3.878L11.6775 1.58053C11.6883 1.50992 11.7481 1.46104 11.8187 1.46104H14.1053C14.1759 1.46104 14.2356 1.50992 14.2465 1.58053L14.6267 3.84541C14.6756 4.13328 14.8874 4.36683 15.1698 4.43743C15.99 4.64383 16.7721 4.96428 17.4999 5.39336C17.7497 5.54 18.0593 5.52914 18.2983 5.36077L20.1721 4.01379C20.1993 3.99749 20.2264 3.98663 20.2536 3.98663C20.2753 3.98663 20.3188 3.99206 20.3568 4.03008L21.9754 5.64863C22.0242 5.69751 22.0297 5.77355 21.9916 5.8333L20.6501 7.71799C20.4817 7.95154 20.4709 8.26655 20.6175 8.5164C21.0412 9.22791 21.3562 9.99373 21.5626 10.7921C21.6332 11.0746 21.8667 11.2864 22.1492 11.3299L24.4303 11.7155C24.5009 11.7263 24.5498 11.7861 24.5498 11.8567V14.1433H24.5444Z" fill="#9D75B0"/>
<path d="M13.0027 7.38678C9.90682 7.38678 7.39209 9.90151 7.39209 12.9974C7.39209 16.0933 9.90682 18.608 13.0027 18.608C16.0986 18.608 18.6133 16.0933 18.6133 12.9974C18.6133 9.90151 16.0986 7.38678 13.0027 7.38678ZM13.0027 17.1415C10.7161 17.1415 8.85856 15.284 8.85856 12.9974C8.85856 10.7108 10.7161 8.85325 13.0027 8.85325C15.2893 8.85325 17.1468 10.7108 17.1468 12.9974C17.1468 15.284 15.2893 17.1415 13.0027 17.1415Z" fill="#9D75B0"/>
</svg>
