<svg width="26" height="27" viewBox="0 0 26 27" fill="none" xmlns="http://www.w3.org/2000/svg">
<path d="M9.99809 6.39744C9.66662 6.06597 9.12901 6.06587 8.79749 6.39744L6.3962 8.79868C6.06463 9.13015 6.06463 9.66776 6.3962 9.99928C6.72767 10.3309 7.26527 10.3309 7.59679 9.99928L9.99809 7.59804C10.3297 7.26657 10.3297 6.72896 9.99809 6.39744Z" fill="#9D75B0"/>
<path d="M25.0053 16.6027C25.6467 15.9613 26 15.1085 26 14.2014C26 13.2943 25.6468 12.4416 25.0053 11.8002L14.1998 0.994613C13.5584 0.353206 12.7056 0 11.7985 0C10.8915 0 10.0387 0.353206 9.3973 0.994613L8.74696 1.64496C6.7592 0.230307 3.9752 0.413741 2.19363 2.19526C0.377989 4.01085 0.248895 6.79729 1.64283 8.74914L0.993039 9.39893C-0.331013 10.723 -0.331013 12.8773 0.993039 14.2014L11.7986 25.007C12.4401 25.6484 13.2928 26.0016 14.1999 26.0016C15.107 26.0016 15.9598 25.6484 16.6012 25.007L17.251 24.3572C19.2033 25.7514 21.9899 25.6213 23.8048 23.8064C25.6198 21.9914 25.75 19.2048 24.3557 17.2525L25.0053 16.6027ZM23.8047 15.4021L22.6041 16.6026C22.2728 16.9339 22.2726 17.4717 22.6041 17.8032C23.9312 19.1303 23.9315 21.2784 22.6041 22.6057C21.277 23.9328 19.129 23.9331 17.8017 22.6057C17.4702 22.2742 16.9326 22.2743 16.6011 22.6057L15.4004 23.8063C14.7369 24.4699 13.6629 24.4699 12.9991 23.8063L3.39418 14.2015L5.19504 12.4006C5.52661 12.069 5.52661 11.5315 5.19504 11.2C4.86357 10.8684 4.32597 10.8684 3.99445 11.2L2.19358 13.0009C1.53008 12.3373 1.52993 11.2633 2.19358 10.5996L3.39423 9.39903C3.72555 9.06776 3.7258 8.5299 3.39423 8.19843C2.75282 7.55703 2.39956 6.70426 2.39956 5.79714C2.39956 3.92041 3.91842 2.40129 5.79542 2.40129C6.70248 2.40129 7.55525 2.7546 8.19671 3.39595C8.52818 3.72753 9.06578 3.72742 9.3973 3.39595L10.5979 2.19536C10.9187 1.87466 11.345 1.69803 11.7985 1.69803C12.2521 1.69803 12.6785 1.87466 12.9992 2.19536L11.1983 3.99628C10.8667 4.32775 10.8667 4.86535 11.1983 5.19687C11.5297 5.52844 12.0673 5.52844 12.3989 5.19687L14.1997 3.39585L23.8046 13.0008C24.4684 13.6645 24.4683 14.7384 23.8047 15.4021Z" fill="#9D75B0"/>
<path d="M14.2003 7.40991C13.7314 7.40991 13.3513 7.79003 13.3513 8.25888V20.1444C13.3513 20.6133 13.7314 20.9934 14.2003 20.9934C14.6691 20.9934 15.0492 20.6133 15.0492 20.1444V8.25888C15.0492 7.79003 14.6692 7.40991 14.2003 7.40991Z" fill="#9D75B0"/>
<path d="M9.10603 11.6545C7.70169 11.6545 6.55914 12.7971 6.55914 14.2014C6.55914 15.6058 7.70169 16.7483 9.10603 16.7483C10.5104 16.7483 11.6529 15.6058 11.6529 14.2014C11.6529 12.797 10.5104 11.6545 9.10603 11.6545ZM9.10603 15.0504C8.6379 15.0504 8.25707 14.6696 8.25707 14.2014C8.25707 13.7333 8.6379 13.3525 9.10603 13.3525C9.57416 13.3525 9.955 13.7333 9.955 14.2014C9.955 14.6696 9.57416 15.0504 9.10603 15.0504Z" fill="#9D75B0"/>
<path d="M19.2932 11.6545C17.8889 11.6545 16.7463 12.7971 16.7463 14.2014C16.7463 15.6058 17.8889 16.7483 19.2932 16.7483C20.6976 16.7483 21.8401 15.6058 21.8401 14.2014C21.8401 12.797 20.6976 11.6545 19.2932 11.6545ZM19.2932 15.0504C18.8251 15.0504 18.4443 14.6696 18.4443 14.2014C18.4443 13.7333 18.8251 13.3525 19.2932 13.3525C19.7614 13.3525 20.1422 13.7333 20.1422 14.2014C20.1422 14.6696 19.7614 15.0504 19.2932 15.0504Z" fill="#9D75B0"/>
</svg>
