<svg width="27" height="28" viewBox="0 0 27 28" fill="none" xmlns="http://www.w3.org/2000/svg">
<path d="M24.6573 0H5.72183C4.74442 0 3.94949 0.794559 3.94949 1.77235V6.11934H1.77272C0.795386 6.11934 0 6.91435 0 7.89206V25.4638C0 26.4416 0.795386 27.2361 1.77272 27.2361H3.40394H24.6573C25.6346 27.2361 26.43 26.4416 26.43 25.4638V1.77235C26.43 0.794559 25.6342 0 24.6573 0ZM1.22672 25.4633V7.89214C1.22672 7.59117 1.47205 7.34622 1.77265 7.34622H3.94941V25.4638C3.94941 25.7648 3.70446 26.0093 3.40387 26.0093H1.77272C1.47213 26.0089 1.22672 25.7648 1.22672 25.4633ZM25.2032 25.4633C25.2032 25.7643 24.9582 26.0089 24.6573 26.0089H5.09043C5.10351 25.968 5.1105 25.9251 5.12065 25.8825C5.1284 25.851 5.13704 25.8203 5.14358 25.7881C5.16321 25.6821 5.17629 25.5746 5.17629 25.4633V6.73278V1.77235C5.17629 1.47138 5.42124 1.2268 5.72183 1.2268H24.6573C24.9582 1.2268 25.2032 1.47138 25.2032 1.77235V25.4633Z" fill="#9D75B0"/>
<path d="M22.42 5.24097H8.24332C7.90469 5.24097 7.62988 5.51577 7.62988 5.8544C7.62988 6.19304 7.90469 6.46784 8.24332 6.46784H22.42C22.759 6.46784 23.0334 6.19304 23.0334 5.8544C23.0334 5.51577 22.759 5.24097 22.42 5.24097Z" fill="#9D75B0"/>
<path d="M22.42 8.51251H8.24332C7.90469 8.51251 7.62988 8.78731 7.62988 9.12595C7.62988 9.46458 7.90469 9.73939 8.24332 9.73939H22.42C22.759 9.73939 23.0334 9.46458 23.0334 9.12595C23.0334 8.78731 22.759 8.51251 22.42 8.51251Z" fill="#9D75B0"/>
<path d="M22.42 11.7839H8.24332C7.90469 11.7839 7.62988 12.0587 7.62988 12.3974C7.62988 12.736 7.90469 13.0108 8.24332 13.0108H22.42C22.759 13.0108 23.0334 12.736 23.0334 12.3974C23.0334 12.0587 22.759 11.7839 22.42 11.7839Z" fill="#9D75B0"/>
<path d="M22.42 15.0555H8.24332C7.90469 15.0555 7.62988 15.3303 7.62988 15.6689C7.62988 16.0076 7.90469 16.2824 8.24332 16.2824H22.42C22.759 16.2824 23.0334 16.0076 23.0334 15.6689C23.0334 15.3303 22.759 15.0555 22.42 15.0555Z" fill="#9D75B0"/>
<path d="M22.42 18.327H8.24332C7.90469 18.327 7.62988 18.6018 7.62988 18.9404C7.62988 19.279 7.90469 19.5538 8.24332 19.5538H22.42C22.759 19.5538 23.0334 19.279 23.0334 18.9404C23.0334 18.6018 22.759 18.327 22.42 18.327Z" fill="#9D75B0"/>
<path d="M22.42 21.5986H8.24332C7.90469 21.5986 7.62988 21.8734 7.62988 22.2121C7.62988 22.5507 7.90469 22.8255 8.24332 22.8255H22.42C22.759 22.8255 23.0334 22.5507 23.0334 22.2121C23.0334 21.8734 22.759 21.5986 22.42 21.5986Z" fill="#9D75B0"/>
</svg>
