<svg width="27" height="26" viewBox="0 0 27 26" fill="none" xmlns="http://www.w3.org/2000/svg">
<path d="M2.2025 14.3162L14.3163 14.3173C15.4768 14.3173 16.4286 15.2154 16.5127 16.3554L16.5188 16.5198V19.2719C16.5176 23.8971 11.7977 25.3287 8.25938 25.3287C4.79183 25.3287 0.188369 23.9538 0.00561796 19.5456L0 19.2719V16.5187C0 15.3582 0.899057 14.4064 2.0382 14.3223L2.2025 14.3162ZM24.2275 14.3162L24.3918 14.3223C25.474 14.4022 26.3395 15.2652 26.4233 16.3463L26.43 16.5187V18.7212C26.4289 22.8608 22.6527 24.2275 19.8225 24.2275C18.6574 24.2275 17.3348 23.9907 16.1785 23.4291C16.5287 23.0128 16.8249 22.5503 17.0562 22.0327C18.1107 22.4952 19.2487 22.5673 19.7298 22.5749L20.0475 22.5716C21.1881 22.5323 24.5962 22.148 24.7711 18.9774L24.7781 18.7212V16.5187C24.7781 16.2486 24.5823 16.0236 24.3261 15.977L24.2275 15.9681L17.5638 15.9692C17.4713 15.4171 17.2406 14.9147 16.9091 14.493L16.761 14.3173L24.2275 14.3162ZM2.2025 15.9681L2.09165 15.9791C1.95467 16.007 1.86111 16.0813 1.81266 16.1289C1.76508 16.1774 1.69073 16.2702 1.66289 16.4075L1.65188 16.5187V19.2719C1.65188 20.7464 2.29831 21.8367 3.62862 22.6032C4.72586 23.2372 6.25989 23.6195 7.88331 23.6709L8.25938 23.6769L8.73828 23.6656C10.4128 23.5909 14.6621 23.0527 14.8597 19.5277L14.8669 19.2708V16.5198C14.8669 16.2507 14.6711 16.025 14.4149 15.9781L14.3163 15.9692L2.2025 15.9681ZM8.25938 0C11.605 0 14.3163 2.71238 14.3163 6.05687C14.3163 9.40137 11.605 12.1137 8.25938 12.1137C4.91378 12.1137 2.2025 9.40137 2.2025 6.05687C2.2025 2.71238 4.91378 0 8.25938 0ZM20.3731 2.2025C23.1097 2.2025 25.3288 4.42152 25.3288 7.15812C25.3288 9.89473 23.1097 12.1137 20.3731 12.1137C17.6365 12.1137 15.4175 9.89473 15.4175 7.15812C15.4175 4.42152 17.6365 2.2025 20.3731 2.2025ZM8.25938 1.65187C5.83002 1.65187 3.85438 3.62752 3.85438 6.05687C3.85438 8.48623 5.83002 10.4619 8.25938 10.4619C10.6887 10.4619 12.6644 8.48623 12.6644 6.05687C12.6644 3.62752 10.6887 1.65187 8.25938 1.65187ZM20.3731 3.85437C18.5517 3.85437 17.0694 5.33666 17.0694 7.15812C17.0694 8.97959 18.5517 10.4619 20.3731 10.4619C22.1946 10.4619 23.6769 8.97959 23.6769 7.15812C23.6769 5.33666 22.1946 3.85437 20.3731 3.85437Z" fill="#9B77B5"/>
</svg>
