<svg width="69" height="76" viewBox="0 0 69 76" fill="none" xmlns="http://www.w3.org/2000/svg">
<path fill-rule="evenodd" clip-rule="evenodd" d="M34.32 68.64C53.2744 68.64 68.64 53.2744 68.64 34.32C68.64 15.3656 53.2744 0 34.32 0C15.3656 0 0 15.3656 0 34.32C0 44.9925 4.87152 54.5273 12.5122 60.8219C12.5244 60.8319 12.5136 60.8513 12.4987 60.8462C12.4895 60.8431 12.48 60.8499 12.48 60.8596V71.504C12.48 74.4833 15.6202 76.4169 18.2806 75.0759L30.2917 69.0211C30.9552 68.6867 31.6984 68.5494 32.4403 68.5894C33.0626 68.623 33.6893 68.64 34.32 68.64Z" fill="#32BD50"/>
<path fill-rule="evenodd" clip-rule="evenodd" d="M45.621 23.4768C46.6801 24.2888 46.8823 25.8049 46.0729 26.8661L34.0626 42.6133C33.6391 43.1686 32.9972 43.5136 32.3016 43.5599C31.6059 43.6062 30.9242 43.3492 30.4312 42.855L22.8082 35.2119C21.8655 34.2666 21.8655 32.7368 22.8082 31.7915C23.7545 30.8428 25.2913 30.8428 26.2376 31.7915L31.8982 37.4671L42.2231 23.9298C43.0354 22.8648 44.5581 22.6618 45.621 23.4768Z" fill="white"/>
</svg>
