<svg width="69" height="76" viewBox="0 0 69 76" fill="none" xmlns="http://www.w3.org/2000/svg">
<path fill-rule="evenodd" clip-rule="evenodd" d="M34.32 68.64C53.2744 68.64 68.64 53.2744 68.64 34.32C68.64 15.3656 53.2744 0 34.32 0C15.3656 0 0 15.3656 0 34.32C0 44.9925 4.87152 54.5273 12.5122 60.8219C12.5244 60.8319 12.5136 60.8513 12.4987 60.8462C12.4896 60.8431 12.48 60.8499 12.48 60.8596V71.504C12.48 74.4832 15.6202 76.4169 18.2806 75.0759L30.2917 69.0211C30.9552 68.6867 31.6984 68.5494 32.4403 68.5894C33.0626 68.623 33.6893 68.64 34.32 68.64Z" fill="#AA1B24"/>
<path d="M35.6047 38.904H31.3948L29.7031 21.8438H37.2969L35.6047 38.904Z" fill="white"/>
<path d="M33.4994 47.1563C35.2849 47.1563 36.7323 45.7121 36.7323 43.9306C36.7323 42.1491 35.2849 40.705 33.4994 40.705C31.714 40.705 30.2666 42.1491 30.2666 43.9306C30.2666 45.7121 31.714 47.1563 33.4994 47.1563Z" fill="white"/>
</svg>
