<svg width="27" height="30" viewBox="0 0 27 30" fill="none" xmlns="http://www.w3.org/2000/svg">
<path d="M5.23002 1.7818C5.62038 1.3345 5.57423 0.655449 5.12695 0.265084C4.67966 -0.125295 4.0006 -0.0791434 3.61024 0.368136L1.75873 2.48962C0.708487 3.693 0.114786 5.22734 0.0814765 6.82422L0.000238624 10.7193C-0.0121448 11.3129 0.458999 11.8041 1.05254 11.8165C1.64609 11.8289 2.1373 11.3577 2.14968 10.7642L2.2309 6.86905C2.25369 5.77644 2.65991 4.72663 3.37851 3.90328L5.23002 1.7818Z" fill="#B55AD7"/>
<path fill-rule="evenodd" clip-rule="evenodd" d="M4.95504 9.36062C5.15412 6.17772 7.79361 3.69816 10.9828 3.69816H11.7817V2.62321C11.7817 1.83164 12.4234 1.18994 13.215 1.18994C14.0065 1.18994 14.6482 1.83164 14.6482 2.62321V3.69816H15.4471C18.6363 3.69816 21.2758 6.17772 21.4749 9.36062L21.7916 14.425C21.9123 16.3559 22.5606 18.2167 23.6658 19.8046C24.6642 21.2393 23.7753 23.221 22.0397 23.4292L17.1564 24.0153V25.5555C17.1564 27.7323 15.3918 29.497 13.215 29.497C11.0381 29.497 9.27344 27.7323 9.27344 25.5555V24.0153L4.39012 23.4292C2.65453 23.221 1.76559 21.2393 2.76413 19.8046C3.86927 18.2167 4.5175 16.3559 4.63829 14.425L4.95504 9.36062ZM10.9828 5.84806C8.92886 5.84806 7.22896 7.44496 7.10074 9.49483L6.78399 14.5592C6.63867 16.8828 5.8586 19.1218 4.52874 21.0327C4.45658 21.1364 4.52083 21.2796 4.64627 21.2947L10.0033 21.9375C12.1367 22.1935 14.2931 22.1935 16.4265 21.9375L21.7836 21.2947C21.909 21.2796 21.9732 21.1364 21.9011 21.0327C20.5712 19.1218 19.7912 16.8828 19.6459 14.5592L19.3291 9.49483C19.2009 7.44496 17.501 5.84806 15.4471 5.84806H10.9828ZM13.215 27.3471C12.2254 27.3471 11.4234 26.545 11.4234 25.5555V24.4805H15.0065V25.5555C15.0065 26.545 14.2043 27.3471 13.215 27.3471Z" fill="#B55AD7"/>
<path d="M21.3032 0.265084C20.8559 0.655449 20.8098 1.3345 21.2002 1.7818L23.0517 3.90328C23.7702 4.72663 24.1765 5.77644 24.1993 6.86905L24.2804 10.7642C24.2929 11.3577 24.7841 11.8289 25.3776 11.8165C25.9711 11.8041 26.4423 11.3129 26.4299 10.7193L26.3486 6.82422C26.3154 5.22734 25.7217 3.693 24.6714 2.48962L22.8199 0.368136C22.4295 -0.0791434 21.7506 -0.125295 21.3032 0.265084Z" fill="#B55AD7"/>
</svg>
