<svg width="69" height="76" viewBox="0 0 69 76" fill="none" xmlns="http://www.w3.org/2000/svg">
<path fill-rule="evenodd" clip-rule="evenodd" d="M34.32 68.64C53.2744 68.64 68.64 53.2744 68.64 34.32C68.64 15.3656 53.2744 0 34.32 0C15.3656 0 0 15.3656 0 34.32C0 44.9925 4.87151 54.5273 12.5122 60.8219C12.5244 60.8319 12.5135 60.8513 12.4987 60.8462C12.4895 60.8431 12.48 60.8499 12.48 60.8596V71.504C12.48 74.4832 15.6202 76.4169 18.2805 75.0759L30.2916 69.0211C30.9551 68.6867 31.6983 68.5494 32.4403 68.5894C33.0626 68.623 33.6893 68.64 34.32 68.64Z" fill="#E350E8"/>
<path d="M26.0006 27.8766C25.9967 27.9737 26.0126 28.0706 26.0475 28.1613C26.0823 28.2521 26.1354 28.3347 26.2033 28.4043C26.2712 28.4738 26.3527 28.5287 26.4426 28.5656C26.5325 28.6026 26.629 28.6207 26.7262 28.6191H29.2068C29.6236 28.6191 29.9527 28.2816 30.0084 27.8681C30.2767 25.8938 31.6318 24.456 34.0466 24.456C36.1087 24.456 37.9987 25.4871 37.9987 27.9694C37.9987 29.8796 36.8715 30.7571 35.0962 32.0936C33.0712 33.5651 31.4681 35.283 31.5828 38.0708L31.5913 38.7221C31.5963 39.1339 31.9321 39.4646 32.3439 39.4646H34.7823C35.1991 39.4646 35.535 39.1271 35.535 38.712V38.3947C35.535 36.2381 36.3568 35.607 38.5725 33.9279C40.4051 32.5341 42.3136 30.9866 42.3136 27.7399C42.3136 23.1954 38.4763 21 34.2744 21C30.464 21 26.2875 22.7769 26.0023 27.8766H26.0006ZM30.6851 45.2122C30.6851 46.8154 31.9642 48 33.7226 48C35.5535 48 36.8141 46.8154 36.8141 45.2122C36.8141 43.5501 35.5535 42.3857 33.7209 42.3857C31.9659 42.3857 30.6851 43.5501 30.6851 45.2122Z" fill="white"/>
</svg>
