<svg width="12" height="7" viewBox="0 0 12 7" fill="none" xmlns="http://www.w3.org/2000/svg">
<path d="M5.27771 6.70773C5.41822 6.84843 5.60886 6.92756 5.80771 6.92773L6.18771 6.92773C6.38612 6.92543 6.57599 6.84662 6.71771 6.70773L11.8477 1.56773C11.9424 1.47385 11.9956 1.34605 11.9956 1.21273C11.9956 1.07942 11.9424 0.951618 11.8477 0.857734L11.1377 0.147734C11.0455 0.0536699 10.9194 0.000662791 10.7877 0.000662789C10.656 0.000662788 10.5299 0.0536699 10.4377 0.147734L5.99771 4.59773L1.55771 0.147734C1.46382 0.0530776 1.33603 -0.000165113 1.20271 -0.000165114C1.06939 -0.000165116 0.941589 0.0530776 0.847706 0.147734L0.147706 0.857734C0.0530501 0.951618 -0.000192572 1.07942 -0.000192574 1.21273C-0.000192576 1.34605 0.0530501 1.47385 0.147706 1.56773L5.27771 6.70773Z" fill="#938696"/>
</svg>
