<svg width="20" height="19" viewBox="0 0 20 19" fill="none" xmlns="http://www.w3.org/2000/svg">
<path d="M19.3804 9.49818C19.3804 9.12928 19.0814 8.83028 18.7125 8.83028L5.99151 8.83028L8.47281 6.35286C8.73298 6.0927 8.73298 5.66944 8.47281 5.40927C8.34467 5.28113 8.17381 5.21512 8.00295 5.21512C7.8321 5.21512 7.66124 5.28113 7.5331 5.40927L3.91793 9.02444C3.65777 9.2846 3.65777 9.70786 3.91793 9.96803L7.5331 13.5832C7.79327 13.8434 8.21652 13.8434 8.47669 13.5832C8.73686 13.323 8.73686 12.8998 8.47669 12.6396L5.99927 10.1622L18.7125 10.1622C19.0814 10.1622 19.3804 9.86707 19.3804 9.49818Z" fill="#202020"/>
<path d="M3.98796 -1.31172e-06C1.78624 -1.5042e-06 1.67633e-05 1.79011 1.65708e-05 3.99182L1.56078e-05 15.0082C1.54153e-05 17.2099 1.79012 19 3.98796 19L15.0043 19C17.206 19 18.9922 17.2099 18.9922 15.0082L18.9922 12.7443C18.9922 12.3754 18.6933 12.0803 18.3282 12.0803C17.9593 12.0803 17.6603 12.3793 17.6603 12.7443L17.6603 15.0082C17.6603 16.4721 16.4682 17.6681 15.0043 17.6681L3.98796 17.6681C2.52403 17.6681 1.33192 16.476 1.33192 15.0082L1.33192 3.99182C1.33192 2.5279 2.52403 1.3319 3.98796 1.3319L15.0043 1.3319C16.4682 1.3319 17.6603 2.52402 17.6603 3.99183L17.6603 6.22849C17.6603 6.59739 17.9593 6.89638 18.3282 6.89638C18.6971 6.89638 18.9922 6.59739 18.9922 6.22849L18.9922 3.99183C18.9923 1.79011 17.2021 -1.56496e-07 15.0043 -3.48637e-07L3.98796 -1.31172e-06Z" fill="#202020"/>
</svg>
