<svg width="20" height="21" viewBox="0 0 20 21" fill="none" xmlns="http://www.w3.org/2000/svg">
<mask id="path-1-outside-1_506_493" maskUnits="userSpaceOnUse" x="0" y="0" width="20" height="21" fill="black">
<rect fill="white" width="20" height="21"/>
<path d="M1.56245 19.9929C3.94692 19.6053 6.23525 19.0007 7.93597 17.1842C7.96796 17.15 7.99055 17.1153 8.00914 17.0804C11.4194 13.7612 14.7609 10.3671 17.7887 6.69172C18.0096 6.89224 18.2066 7.10431 18.3789 7.35127C16.8184 9.33208 15.1812 11.2474 13.454 13.0854C13.0393 13.5264 13.8041 14.0739 14.2137 13.6381C16.0127 11.7241 17.7164 9.7274 19.3351 7.65859C19.4302 7.537 19.4621 7.32645 19.3833 7.18843C19.061 6.62235 18.6595 6.20441 18.1761 5.78605C18.1559 5.74837 18.1309 5.71158 18.0984 5.67731C18.9664 4.36781 18.9214 2.84966 17.6956 1.74987C16.4801 0.659563 14.6476 0.848115 13.3992 1.739C13.3988 1.739 13.3983 1.73879 13.3978 1.73853C13.2527 1.64653 13.0656 1.64055 12.9013 1.80255C9.40119 5.25061 6.18936 8.97348 3.12578 12.8112C3.11293 12.8271 3.10395 12.8436 3.09401 12.8598C3.07057 12.8844 3.04841 12.9127 3.02809 12.9454C1.8167 14.9102 1.28084 17.0884 1.00391 19.36C0.991609 19.4606 1.00918 19.5458 1.04446 19.6175C1.08694 19.8431 1.27014 20.0404 1.56245 19.9929ZM17.3896 5.04153C16.3526 4.11529 15.3279 3.17623 14.2368 2.31443C16.1664 1.24376 18.6503 2.93635 17.3896 5.04153ZM13.2709 2.7564C14.6153 3.7759 15.8483 4.92492 17.1095 6.04354C14.166 9.62709 10.9193 12.9352 7.60164 16.1701C6.42216 15.157 5.20993 14.1814 4.12974 13.0612C7.00358 9.47639 10.008 5.99407 13.2709 2.7564ZM3.58321 13.8453C4.64254 14.9177 5.8125 15.869 6.95671 16.8502C5.88348 17.8815 4.52678 18.405 3.10715 18.7388C2.81042 18.5229 2.51136 18.3063 2.25934 18.0379C2.23216 18.0092 2.20211 17.9848 2.17076 17.9628C2.4382 16.5243 2.85699 15.1332 3.58321 13.8453Z"/>
</mask>
<path d="M1.56245 19.9929C3.94692 19.6053 6.23525 19.0007 7.93597 17.1842C7.96796 17.15 7.99055 17.1153 8.00914 17.0804C11.4194 13.7612 14.7609 10.3671 17.7887 6.69172C18.0096 6.89224 18.2066 7.10431 18.3789 7.35127C16.8184 9.33208 15.1812 11.2474 13.454 13.0854C13.0393 13.5264 13.8041 14.0739 14.2137 13.6381C16.0127 11.7241 17.7164 9.7274 19.3351 7.65859C19.4302 7.537 19.4621 7.32645 19.3833 7.18843C19.061 6.62235 18.6595 6.20441 18.1761 5.78605C18.1559 5.74837 18.1309 5.71158 18.0984 5.67731C18.9664 4.36781 18.9214 2.84966 17.6956 1.74987C16.4801 0.659563 14.6476 0.848115 13.3992 1.739C13.3988 1.739 13.3983 1.73879 13.3978 1.73853C13.2527 1.64653 13.0656 1.64055 12.9013 1.80255C9.40119 5.25061 6.18936 8.97348 3.12578 12.8112C3.11293 12.8271 3.10395 12.8436 3.09401 12.8598C3.07057 12.8844 3.04841 12.9127 3.02809 12.9454C1.8167 14.9102 1.28084 17.0884 1.00391 19.36C0.991609 19.4606 1.00918 19.5458 1.04446 19.6175C1.08694 19.8431 1.27014 20.0404 1.56245 19.9929ZM17.3896 5.04153C16.3526 4.11529 15.3279 3.17623 14.2368 2.31443C16.1664 1.24376 18.6503 2.93635 17.3896 5.04153ZM13.2709 2.7564C14.6153 3.7759 15.8483 4.92492 17.1095 6.04354C14.166 9.62709 10.9193 12.9352 7.60164 16.1701C6.42216 15.157 5.20993 14.1814 4.12974 13.0612C7.00358 9.47639 10.008 5.99407 13.2709 2.7564ZM3.58321 13.8453C4.64254 14.9177 5.8125 15.869 6.95671 16.8502C5.88348 17.8815 4.52678 18.405 3.10715 18.7388C2.81042 18.5229 2.51136 18.3063 2.25934 18.0379C2.23216 18.0092 2.20211 17.9848 2.17076 17.9628C2.4382 16.5243 2.85699 15.1332 3.58321 13.8453Z" fill="#202020"/>
<path d="M1.56245 19.9929C3.94692 19.6053 6.23525 19.0007 7.93597 17.1842C7.96796 17.15 7.99055 17.1153 8.00914 17.0804C11.4194 13.7612 14.7609 10.3671 17.7887 6.69172C18.0096 6.89224 18.2066 7.10431 18.3789 7.35127C16.8184 9.33208 15.1812 11.2474 13.454 13.0854C13.0393 13.5264 13.8041 14.0739 14.2137 13.6381C16.0127 11.7241 17.7164 9.7274 19.3351 7.65859C19.4302 7.537 19.4621 7.32645 19.3833 7.18843C19.061 6.62235 18.6595 6.20441 18.1761 5.78605C18.1559 5.74837 18.1309 5.71158 18.0984 5.67731C18.9664 4.36781 18.9214 2.84966 17.6956 1.74987C16.4801 0.659563 14.6476 0.848115 13.3992 1.739C13.3988 1.739 13.3983 1.73879 13.3978 1.73853C13.2527 1.64653 13.0656 1.64055 12.9013 1.80255C9.40119 5.25061 6.18936 8.97348 3.12578 12.8112C3.11293 12.8271 3.10395 12.8436 3.09401 12.8598C3.07057 12.8844 3.04841 12.9127 3.02809 12.9454C1.8167 14.9102 1.28084 17.0884 1.00391 19.36C0.991609 19.4606 1.00918 19.5458 1.04446 19.6175C1.08694 19.8431 1.27014 20.0404 1.56245 19.9929ZM17.3896 5.04153C16.3526 4.11529 15.3279 3.17623 14.2368 2.31443C16.1664 1.24376 18.6503 2.93635 17.3896 5.04153ZM13.2709 2.7564C14.6153 3.7759 15.8483 4.92492 17.1095 6.04354C14.166 9.62709 10.9193 12.9352 7.60164 16.1701C6.42216 15.157 5.20993 14.1814 4.12974 13.0612C7.00358 9.47639 10.008 5.99407 13.2709 2.7564ZM3.58321 13.8453C4.64254 14.9177 5.8125 15.869 6.95671 16.8502C5.88348 17.8815 4.52678 18.405 3.10715 18.7388C2.81042 18.5229 2.51136 18.3063 2.25934 18.0379C2.23216 18.0092 2.20211 17.9848 2.17076 17.9628C2.4382 16.5243 2.85699 15.1332 3.58321 13.8453Z" stroke="#202020" stroke-width="0.4" mask="url(#path-1-outside-1_506_493)"/>
</svg>
