<svg width="28" height="28" viewBox="0 0 28 28" fill="none" xmlns="http://www.w3.org/2000/svg">
<mask id="path-1-outside-1_279_1332" maskUnits="userSpaceOnUse" x="0.429993" y="0" width="28" height="28" fill="black">
<rect fill="white" x="0.429993" width="28" height="28"/>
<path d="M14.215 27.43C10.6853 27.43 7.36673 26.0552 4.87116 23.5592C2.37477 21.0633 0.999992 17.7446 0.999992 14.215C0.999992 10.6854 2.37477 7.36674 4.87075 4.87117C7.36673 2.37477 10.6853 1 14.215 1C17.7446 1 21.0633 2.37477 23.5588 4.87076C26.0552 7.36674 27.43 10.6854 27.43 14.215C27.43 17.7446 26.0552 21.0633 23.5592 23.5588C21.0633 26.0552 17.7446 27.43 14.215 27.43ZM22.3909 6.03904C20.2072 3.85485 17.3036 2.65188 14.215 2.65188C11.1264 2.65188 8.22282 3.85485 6.03904 6.03904C3.85485 8.22282 2.65187 11.1264 2.65187 14.215C2.65187 17.3036 3.85485 20.2072 6.03904 22.391C8.22282 24.5751 11.1264 25.7781 14.215 25.7781C17.3036 25.7781 20.2072 24.5751 22.3909 22.391C24.5751 20.2072 25.7781 17.3036 25.7781 14.215C25.7781 11.1264 24.5751 8.22282 22.3909 6.03904Z"/>
</mask>
<path d="M14.215 27.43C10.6853 27.43 7.36673 26.0552 4.87116 23.5592C2.37477 21.0633 0.999992 17.7446 0.999992 14.215C0.999992 10.6854 2.37477 7.36674 4.87075 4.87117C7.36673 2.37477 10.6853 1 14.215 1C17.7446 1 21.0633 2.37477 23.5588 4.87076C26.0552 7.36674 27.43 10.6854 27.43 14.215C27.43 17.7446 26.0552 21.0633 23.5592 23.5588C21.0633 26.0552 17.7446 27.43 14.215 27.43ZM22.3909 6.03904C20.2072 3.85485 17.3036 2.65188 14.215 2.65188C11.1264 2.65188 8.22282 3.85485 6.03904 6.03904C3.85485 8.22282 2.65187 11.1264 2.65187 14.215C2.65187 17.3036 3.85485 20.2072 6.03904 22.391C8.22282 24.5751 11.1264 25.7781 14.215 25.7781C17.3036 25.7781 20.2072 24.5751 22.3909 22.391C24.5751 20.2072 25.7781 17.3036 25.7781 14.215C25.7781 11.1264 24.5751 8.22282 22.3909 6.03904Z" fill="#717171"/>
<path d="M14.215 27.43C10.6853 27.43 7.36673 26.0552 4.87116 23.5592C2.37477 21.0633 0.999992 17.7446 0.999992 14.215C0.999992 10.6854 2.37477 7.36674 4.87075 4.87117C7.36673 2.37477 10.6853 1 14.215 1C17.7446 1 21.0633 2.37477 23.5588 4.87076C26.0552 7.36674 27.43 10.6854 27.43 14.215C27.43 17.7446 26.0552 21.0633 23.5592 23.5588C21.0633 26.0552 17.7446 27.43 14.215 27.43ZM22.3909 6.03904C20.2072 3.85485 17.3036 2.65188 14.215 2.65188C11.1264 2.65188 8.22282 3.85485 6.03904 6.03904C3.85485 8.22282 2.65187 11.1264 2.65187 14.215C2.65187 17.3036 3.85485 20.2072 6.03904 22.391C8.22282 24.5751 11.1264 25.7781 14.215 25.7781C17.3036 25.7781 20.2072 24.5751 22.3909 22.391C24.5751 20.2072 25.7781 17.3036 25.7781 14.215C25.7781 11.1264 24.5751 8.22282 22.3909 6.03904Z" stroke="#717171" stroke-width="0.4" mask="url(#path-1-outside-1_279_1332)"/>
<mask id="path-2-outside-2_279_1332" maskUnits="userSpaceOnUse" x="9.50714" y="8" width="8" height="13" fill="black">
<rect fill="white" x="9.50714" y="8" width="8" height="13"/>
<path d="M15.5876 19.8535L10.6517 14.8534C10.5591 14.7597 10.5071 14.6325 10.5071 14.4999C10.5071 14.3672 10.5592 14.2401 10.6517 14.1463L15.5876 9.14645C15.7804 8.95118 16.0929 8.95118 16.2857 9.14645C16.4784 9.34168 16.4784 9.65828 16.2857 9.85355L11.6988 14.4999L16.2857 19.1464C16.382 19.2441 16.4302 19.372 16.4302 19.5C16.4302 19.628 16.382 19.7559 16.2856 19.8536C16.0929 20.0488 15.7804 20.0488 15.5876 19.8535Z"/>
</mask>
<path d="M15.5876 19.8535L10.6517 14.8534C10.5591 14.7597 10.5071 14.6325 10.5071 14.4999C10.5071 14.3672 10.5592 14.2401 10.6517 14.1463L15.5876 9.14645C15.7804 8.95118 16.0929 8.95118 16.2857 9.14645C16.4784 9.34168 16.4784 9.65828 16.2857 9.85355L11.6988 14.4999L16.2857 19.1464C16.382 19.2441 16.4302 19.372 16.4302 19.5C16.4302 19.628 16.382 19.7559 16.2856 19.8536C16.0929 20.0488 15.7804 20.0488 15.5876 19.8535Z" fill="#717171"/>
<path d="M15.5876 19.8535L10.6517 14.8534C10.5591 14.7597 10.5071 14.6325 10.5071 14.4999C10.5071 14.3672 10.5592 14.2401 10.6517 14.1463L15.5876 9.14645C15.7804 8.95118 16.0929 8.95118 16.2857 9.14645C16.4784 9.34168 16.4784 9.65828 16.2857 9.85355L11.6988 14.4999L16.2857 19.1464C16.382 19.2441 16.4302 19.372 16.4302 19.5C16.4302 19.628 16.382 19.7559 16.2856 19.8536C16.0929 20.0488 15.7804 20.0488 15.5876 19.8535Z" stroke="#717171" stroke-width="0.846154" mask="url(#path-2-outside-2_279_1332)"/>
</svg>
