<svg width="21" height="21" viewBox="0 0 21 21" fill="none" xmlns="http://www.w3.org/2000/svg">
<mask id="path-1-outside-1_339_2075" maskUnits="userSpaceOnUse" x="0" y="0" width="21" height="21" fill="black">
<rect fill="white" width="21" height="21"/>
<path fill-rule="evenodd" clip-rule="evenodd" d="M19.0959 2.4231C19.4214 2.09755 19.4214 1.56973 19.0959 1.24418C18.7703 0.918608 18.2424 0.918608 17.9168 1.24418L10.17 8.99106L2.4231 1.24418C2.09755 0.918608 1.56973 0.918608 1.24418 1.24418C0.918608 1.56973 0.918608 2.09755 1.24418 2.4231L8.99106 10.17L1.24418 17.9168C0.918608 18.2424 0.918608 18.7703 1.24418 19.0959C1.56973 19.4214 2.09755 19.4214 2.4231 19.0959L10.17 11.3489L17.9168 19.0959C18.2424 19.4214 18.7703 19.4214 19.0959 19.0959C19.4214 18.7703 19.4214 18.2424 19.0959 17.9168L11.3489 10.17L19.0959 2.4231Z"/>
</mask>
<path fill-rule="evenodd" clip-rule="evenodd" d="M19.0959 2.4231C19.4214 2.09755 19.4214 1.56973 19.0959 1.24418C18.7703 0.918608 18.2424 0.918608 17.9168 1.24418L10.17 8.99106L2.4231 1.24418C2.09755 0.918608 1.56973 0.918608 1.24418 1.24418C0.918608 1.56973 0.918608 2.09755 1.24418 2.4231L8.99106 10.17L1.24418 17.9168C0.918608 18.2424 0.918608 18.7703 1.24418 19.0959C1.56973 19.4214 2.09755 19.4214 2.4231 19.0959L10.17 11.3489L17.9168 19.0959C18.2424 19.4214 18.7703 19.4214 19.0959 19.0959C19.4214 18.7703 19.4214 18.2424 19.0959 17.9168L11.3489 10.17L19.0959 2.4231Z" fill="#202020"/>
<path fill-rule="evenodd" clip-rule="evenodd" d="M19.0959 2.4231C19.4214 2.09755 19.4214 1.56973 19.0959 1.24418C18.7703 0.918608 18.2424 0.918608 17.9168 1.24418L10.17 8.99106L2.4231 1.24418C2.09755 0.918608 1.56973 0.918608 1.24418 1.24418C0.918608 1.56973 0.918608 2.09755 1.24418 2.4231L8.99106 10.17L1.24418 17.9168C0.918608 18.2424 0.918608 18.7703 1.24418 19.0959C1.56973 19.4214 2.09755 19.4214 2.4231 19.0959L10.17 11.3489L17.9168 19.0959C18.2424 19.4214 18.7703 19.4214 19.0959 19.0959C19.4214 18.7703 19.4214 18.2424 19.0959 17.9168L11.3489 10.17L19.0959 2.4231Z" stroke="#202020" stroke-width="2" mask="url(#path-1-outside-1_339_2075)"/>
</svg>
