<svg width="32" height="32" viewBox="0 0 32 32" fill="none" xmlns="http://www.w3.org/2000/svg">
<path d="M10.5792 22.9914C13.4382 22.5222 16.1819 21.7903 18.2211 19.5914C18.2595 19.55 18.2865 19.508 18.3088 19.4658C22.3978 15.4478 26.4043 11.3391 30.0346 6.88998C30.2995 7.13271 30.5357 7.38943 30.7423 7.68838C28.8712 10.0862 26.9083 12.4048 24.8373 14.6297C24.34 15.1636 25.2571 15.8263 25.7482 15.2988C27.9052 12.9817 29.9479 10.5647 31.8888 8.0604C32.0028 7.91321 32.041 7.65834 31.9466 7.49126C31.5602 6.806 31.0788 6.30007 30.4991 5.79363C30.475 5.74803 30.445 5.70349 30.4059 5.66201C31.4467 4.07683 31.3928 2.23906 29.923 0.907738C28.4656 -0.412109 26.2684 -0.183861 24.7716 0.894576L24.7698 0.894014C24.5959 0.782646 24.3716 0.775401 24.1745 0.971508C19.9779 5.14547 16.1269 9.65211 12.4536 14.2978C12.4382 14.317 12.4274 14.337 12.4155 14.3566C12.3874 14.3864 12.3608 14.4206 12.3365 14.4603C10.884 16.8386 10.2415 19.4754 9.90948 22.2253C9.89472 22.3471 9.9158 22.4501 9.95809 22.5369C10.009 22.81 10.2287 23.0489 10.5792 22.9914ZM29.5561 4.89238C28.3127 3.77114 27.0841 2.63439 25.7759 1.59115C28.0894 0.295081 31.0677 2.344 29.5561 4.89238ZM24.6177 2.12616C26.2296 3.3603 27.7081 4.75121 29.2203 6.10534C25.691 10.4433 21.7982 14.4479 17.8202 18.3638C16.406 17.1374 14.9525 15.9564 13.6574 14.6004C17.1031 10.2609 20.7055 6.04545 24.6177 2.12616ZM13.0021 15.5496C14.2722 16.8477 15.675 17.9993 17.047 19.1871C15.7601 20.4355 14.1334 21.0692 12.4313 21.4733C12.0755 21.2119 11.7169 20.9497 11.4148 20.6248C11.3822 20.5901 11.3461 20.5606 11.3085 20.5339C11.6292 18.7925 12.1313 17.1086 13.0021 15.5496Z" fill="white"/>
<path fill-rule="evenodd" clip-rule="evenodd" d="M22.8824 27.7843L24.783 29.4929L25 17L26.3209 15.5V31.2237C26.3209 31.5295 26.1431 31.8068 25.8667 31.932C25.7658 31.9777 25.6586 32 25.5521 32C25.3671 32 25.1843 31.9326 25.0406 31.8035L22.0783 29.1405H7.01953C6.59486 29.1405 6.25057 28.7929 6.25057 28.3641V24.619H4.24256L1.28027 27.282C1.13663 27.4111 0.95387 27.4786 0.768807 27.4786C0.662332 27.4786 0.555189 27.4563 0.45425 27.4106C0.177835 27.2854 0 27.008 0 26.7022V9.77635C0 9.3476 0.344238 9 0.76896 9H15.6024L14.3621 10.5L1.53792 10.5527V24.9714L3.43853 23.2629C3.57936 23.1363 3.76134 23.0663 3.94984 23.0663H6.25057V14.2978C6.25057 13.869 6.59486 13.5214 7.01953 13.5214L12 13.5L11 15.0741H7.78849V27.5878H22.3711C22.5596 27.5878 22.7416 27.6577 22.8824 27.7843ZM21.5 13.5214H20.0703V9.77635C20.0703 9.3476 19.726 9 19.3014 9L17.8731 10.5527H18.5324V13.5214L15.6024 13.5107L15 14.5L15.5 15.0741H20.1415L21.5 13.5214Z" fill="white"/>
<path d="M21.2955 23.4561H14.1592C13.3947 23.4561 12.7749 23.8037 12.7749 24.2324C12.7749 24.6611 13.3947 25.0087 14.1592 25.0087H21.2955C22.06 25.0087 22.6798 24.6611 22.6798 24.2324C22.6798 23.8037 22.06 23.4561 21.2955 23.4561Z" fill="white"/>
<path d="M22.0892 20H18.521C18.1387 20 17.8289 20.3476 17.8289 20.7763C17.8289 21.2051 18.1387 21.5527 18.521 21.5527H22.0892C22.4714 21.5527 22.7813 21.2051 22.7813 20.7763C22.7813 20.3476 22.4714 20 22.0892 20Z" fill="white"/>
<path d="M11.0994 23.3628C10.675 23.3628 10.3305 23.7106 10.3305 24.1397C10.3305 24.5682 10.675 24.916 11.0994 24.916C11.5244 24.916 11.8684 24.5682 11.8684 24.1397C11.8684 23.7106 11.5244 23.3628 11.0994 23.3628Z" fill="white"/>
</svg>
