<svg width="20" height="19" viewBox="0 0 20 19" fill="none" xmlns="http://www.w3.org/2000/svg">
<path d="M0 9.50182C0 9.87072 0.298999 10.1697 0.667893 10.1697H13.3889L10.9076 12.6471C10.6475 12.9073 10.6475 13.3306 10.9076 13.5907C11.0358 13.7189 11.2066 13.7849 11.3775 13.7849C11.5483 13.7849 11.7192 13.7189 11.8473 13.5907L15.4625 9.97556C15.7227 9.71539 15.7227 9.29214 15.4625 9.03197L11.8473 5.41681C11.5872 5.15664 11.1639 5.15664 10.9037 5.41681C10.6436 5.67697 10.6436 6.10023 10.9037 6.3604L13.3812 8.83782H0.667893C0.298999 8.83782 0 9.13293 0 9.50182Z" fill="#202020"/>
<path d="M15.3925 19C17.5942 19 19.3804 17.2099 19.3804 15.0082V3.99182C19.3804 1.79011 17.5903 0 15.3925 0H4.37613C2.17441 0 0.388184 1.79011 0.388184 3.99182V6.25567C0.388184 6.62457 0.687182 6.91968 1.05219 6.91968C1.42109 6.91968 1.72009 6.62068 1.72009 6.25567V3.99182C1.72009 2.5279 2.9122 1.3319 4.37613 1.3319H15.3925C16.8564 1.3319 18.0485 2.52401 18.0485 3.99182V15.0082C18.0485 16.4721 16.8564 17.6681 15.3925 17.6681H4.37613C2.9122 17.6681 1.72009 16.476 1.72009 15.0082V12.7715C1.72009 12.4026 1.42109 12.1036 1.05219 12.1036C0.683299 12.1036 0.388184 12.4026 0.388184 12.7715V15.0082C0.388184 17.2099 2.17829 19 4.37613 19H15.3925Z" fill="#202020"/>
</svg>
