<svg width="18" height="12" viewBox="0 0 18 12" fill="none" xmlns="http://www.w3.org/2000/svg">
<path d="M17.6719 5.21683C17.5135 5.0038 13.7375 0 8.90948 0C4.08141 0 0.305477 5.0038 0.14708 5.21683C-0.0490265 5.48054 -0.0490265 5.84166 0.14708 6.10538C0.305477 6.3184 4.08141 11.3221 8.90948 11.3221C13.7375 11.3221 17.5135 6.3184 17.6719 6.10538C17.868 5.84172 17.868 5.48054 17.6719 5.21683ZM8.90948 8.64284C7.26534 8.64284 5.92774 7.30525 5.92774 5.6611C5.92774 4.0169 7.26534 2.6793 8.90948 2.6793C10.5537 2.6793 11.8913 4.0169 11.8913 5.6611C11.8913 7.30525 10.5536 8.64284 8.90948 8.64284Z" fill="#80677F"/>
<path d="M8.90956 6.92759C9.60904 6.92759 10.1761 6.36054 10.1761 5.66106C10.1761 4.96158 9.60904 4.39453 8.90956 4.39453C8.21007 4.39453 7.64303 4.96158 7.64303 5.66106C7.64303 6.36054 8.21007 6.92759 8.90956 6.92759Z" fill="#80677F"/>
</svg>
