<svg width="22" height="22" viewBox="0 0 22 22" fill="none" xmlns="http://www.w3.org/2000/svg">
<mask id="path-1-outside-1_921_435" maskUnits="userSpaceOnUse" x="0" y="0" width="22" height="22" fill="black">
<rect fill="white" width="22" height="22"/>
<path d="M11 1C13.6709 1 16.1822 2.04031 18.0706 3.92906C19.9597 5.81781 21 8.32906 21 11C21 13.6709 19.9597 16.1822 18.0709 18.0706C16.1822 19.9597 13.6709 21 11 21C8.32906 21 5.81781 19.9597 3.92937 18.0709C2.04031 16.1822 1 13.6709 1 11C1 8.32906 2.04031 5.81781 3.92906 3.92938C5.81781 2.04031 8.32906 1 11 1ZM4.81312 17.1869C6.46562 18.8397 8.66281 19.75 11 19.75C13.3372 19.75 15.5344 18.8397 17.1869 17.1869C18.8397 15.5344 19.75 13.3372 19.75 11C19.75 8.66281 18.8397 6.46562 17.1869 4.81312C15.5344 3.16031 13.3372 2.25 11 2.25C8.66281 2.25 6.46562 3.16031 4.81312 4.81312C3.16031 6.46562 2.25 8.66281 2.25 11C2.25 13.3372 3.16031 15.5344 4.81312 17.1869Z"/>
</mask>
<path d="M11 1C13.6709 1 16.1822 2.04031 18.0706 3.92906C19.9597 5.81781 21 8.32906 21 11C21 13.6709 19.9597 16.1822 18.0709 18.0706C16.1822 19.9597 13.6709 21 11 21C8.32906 21 5.81781 19.9597 3.92937 18.0709C2.04031 16.1822 1 13.6709 1 11C1 8.32906 2.04031 5.81781 3.92906 3.92938C5.81781 2.04031 8.32906 1 11 1ZM4.81312 17.1869C6.46562 18.8397 8.66281 19.75 11 19.75C13.3372 19.75 15.5344 18.8397 17.1869 17.1869C18.8397 15.5344 19.75 13.3372 19.75 11C19.75 8.66281 18.8397 6.46562 17.1869 4.81312C15.5344 3.16031 13.3372 2.25 11 2.25C8.66281 2.25 6.46562 3.16031 4.81312 4.81312C3.16031 6.46562 2.25 8.66281 2.25 11C2.25 13.3372 3.16031 15.5344 4.81312 17.1869Z" fill="white"/>
<path d="M11 1C13.6709 1 16.1822 2.04031 18.0706 3.92906C19.9597 5.81781 21 8.32906 21 11C21 13.6709 19.9597 16.1822 18.0709 18.0706C16.1822 19.9597 13.6709 21 11 21C8.32906 21 5.81781 19.9597 3.92937 18.0709C2.04031 16.1822 1 13.6709 1 11C1 8.32906 2.04031 5.81781 3.92906 3.92938C5.81781 2.04031 8.32906 1 11 1ZM4.81312 17.1869C6.46562 18.8397 8.66281 19.75 11 19.75C13.3372 19.75 15.5344 18.8397 17.1869 17.1869C18.8397 15.5344 19.75 13.3372 19.75 11C19.75 8.66281 18.8397 6.46562 17.1869 4.81312C15.5344 3.16031 13.3372 2.25 11 2.25C8.66281 2.25 6.46562 3.16031 4.81312 4.81312C3.16031 6.46562 2.25 8.66281 2.25 11C2.25 13.3372 3.16031 15.5344 4.81312 17.1869Z" stroke="white" stroke-width="0.4" mask="url(#path-1-outside-1_921_435)"/>
<mask id="path-2-outside-2_921_435" maskUnits="userSpaceOnUse" x="8" y="6" width="7" height="10" fill="black">
<rect fill="white" x="8" y="6" width="7" height="10"/>
<path d="M9.71131 7.10651L13.878 10.743C13.9561 10.8111 14 10.9036 14 11.0001C14 11.0965 13.9561 11.189 13.8779 11.2572L9.71128 14.8935C9.54856 15.0355 9.28475 15.0355 9.12203 14.8935C8.95934 14.7515 8.95931 14.5212 9.12203 14.3792L12.9941 11.0001L9.12203 7.62077C9.04067 7.54976 9 7.45669 9 7.36363C9 7.27056 9.04067 7.17749 9.12206 7.10649C9.28478 6.9645 9.54859 6.9645 9.71131 7.10651Z"/>
</mask>
<path d="M9.71131 7.10651L13.878 10.743C13.9561 10.8111 14 10.9036 14 11.0001C14 11.0965 13.9561 11.189 13.8779 11.2572L9.71128 14.8935C9.54856 15.0355 9.28475 15.0355 9.12203 14.8935C8.95934 14.7515 8.95931 14.5212 9.12203 14.3792L12.9941 11.0001L9.12203 7.62077C9.04067 7.54976 9 7.45669 9 7.36363C9 7.27056 9.04067 7.17749 9.12206 7.10649C9.28478 6.9645 9.54859 6.9645 9.71131 7.10651Z" fill="white"/>
<path d="M9.71131 7.10651L13.878 10.743C13.9561 10.8111 14 10.9036 14 11.0001C14 11.0965 13.9561 11.189 13.8779 11.2572L9.71128 14.8935C9.54856 15.0355 9.28475 15.0355 9.12203 14.8935C8.95934 14.7515 8.95931 14.5212 9.12203 14.3792L12.9941 11.0001L9.12203 7.62077C9.04067 7.54976 9 7.45669 9 7.36363C9 7.27056 9.04067 7.17749 9.12206 7.10649C9.28478 6.9645 9.54859 6.9645 9.71131 7.10651Z" stroke="white" stroke-width="0.846154" mask="url(#path-2-outside-2_921_435)"/>
</svg>
