<svg width="39" height="39" viewBox="0 0 39 39" fill="none" xmlns="http://www.w3.org/2000/svg">
<path fill-rule="evenodd" clip-rule="evenodd" d="M19.4023 0L13.2905 12.4441L-7.62939e-06 14.6323L9.51327 24.5108L7.41068 38.3075L19.4023 31.9686L31.3939 38.3075L29.6196 26.6641C28.0219 26.829 26.5699 26.9733 24.9727 26.9733C24.4524 26.9733 24.0307 26.5539 24.0307 26.0361L25 21C25 20.4822 24.189 20.0485 24.7434 19.9074C28.6513 19.3114 30.706 18.9859 35.208 18.3672L38.805 14.6323L25.5145 12.4441L19.4023 0Z" fill="white"/>
<path fill-rule="evenodd" clip-rule="evenodd" d="M19.4027 0L25.5145 12.4441L38.805 14.6323L29.2917 24.5108L31.3943 38.3075L19.4027 31.9686L7.41108 38.3075L9.18542 26.6641C10.7831 26.829 12.2351 26.9733 13.8323 26.9733C14.3526 26.9733 14.7743 26.5539 14.7743 26.0361V20.8145C14.7743 20.2967 14.616 20.0485 14.0616 19.9074C10.1537 19.3114 8.09898 18.9859 3.59697 18.3672L0 14.6323L13.2905 12.4441L19.4027 0V0ZM24.4505 21.9045C24.4505 21.5617 24.2797 21.2413 23.9954 21.049C24.2161 20.7633 24.3586 20.4249 24.4069 20.0677C24.4069 19.1051 23.4995 18.8175 22.1021 18.8175C21.2717 18.8264 20.444 18.9241 19.6344 19.1082C19.7101 18.6955 20.2626 17.4989 20.2626 17.0987C20.2626 16.2674 20.0647 15.2236 19.2986 14.8265C19.0913 14.7081 18.8569 14.6456 18.6174 14.6456C18.6104 14.6456 18.6025 14.6456 18.595 14.6456C18.2892 14.6311 17.9892 14.7366 17.7599 14.9395C17.7022 15.045 17.6712 15.1638 17.6712 15.2845C17.6712 15.3088 17.6727 15.3338 17.6751 15.3584L17.8137 16.9209C17.8137 18.1703 15.8827 19.7331 15.8827 21.5301V25.2986C15.8827 25.9673 16.7838 26.4425 18.0803 26.4425H21.6749C22.6172 26.4425 22.8273 26.2803 23.0692 25.8426C23.1489 25.709 23.1913 25.557 23.1913 25.4018C23.1913 25.2342 23.1418 25.07 23.0503 24.9301C23.4995 24.7632 23.8329 24.3806 23.9357 23.9144C23.9915 23.64 23.9491 23.3551 23.8164 23.1082C24.2008 22.9323 24.4477 22.5497 24.4477 22.128C24.4477 22.0995 24.4465 22.0709 24.4442 22.0424L24.4505 21.9045V21.9045Z" fill="#B55AD7"/>
</svg>
