<svg width="28" height="28" viewBox="0 0 28 28" fill="none" xmlns="http://www.w3.org/2000/svg">
<mask id="path-1-outside-1_298_5588" maskUnits="userSpaceOnUse" x="0" y="0" width="28" height="28" fill="black">
<rect fill="white" width="28" height="28"/>
<path d="M23.1971 23.1971C28.2676 18.1265 28.2676 9.87352 23.1971 4.80294C18.1265 -0.267646 9.87352 -0.267646 4.80294 4.80294C-0.267646 9.87352 -0.267646 18.1265 4.80294 23.1971C9.87352 28.2676 18.1265 28.2676 23.1971 23.1971ZM5.72052 5.72052C10.2872 1.15381 17.7128 1.15381 22.2795 5.72052C26.8462 10.2872 26.8462 17.7128 22.2795 22.2795C17.7128 26.8462 10.2872 26.8462 5.72052 22.2795C1.15381 17.7128 1.15912 10.2872 5.72052 5.72052Z"/>
</mask>
<path d="M23.1971 23.1971C28.2676 18.1265 28.2676 9.87352 23.1971 4.80294C18.1265 -0.267646 9.87352 -0.267646 4.80294 4.80294C-0.267646 9.87352 -0.267646 18.1265 4.80294 23.1971C9.87352 28.2676 18.1265 28.2676 23.1971 23.1971ZM5.72052 5.72052C10.2872 1.15381 17.7128 1.15381 22.2795 5.72052C26.8462 10.2872 26.8462 17.7128 22.2795 22.2795C17.7128 26.8462 10.2872 26.8462 5.72052 22.2795C1.15381 17.7128 1.15912 10.2872 5.72052 5.72052Z" fill="white"/>
<path d="M23.1971 23.1971C28.2676 18.1265 28.2676 9.87352 23.1971 4.80294C18.1265 -0.267646 9.87352 -0.267646 4.80294 4.80294C-0.267646 9.87352 -0.267646 18.1265 4.80294 23.1971C9.87352 28.2676 18.1265 28.2676 23.1971 23.1971ZM5.72052 5.72052C10.2872 1.15381 17.7128 1.15381 22.2795 5.72052C26.8462 10.2872 26.8462 17.7128 22.2795 22.2795C17.7128 26.8462 10.2872 26.8462 5.72052 22.2795C1.15381 17.7128 1.15912 10.2872 5.72052 5.72052Z" stroke="#817284" mask="url(#path-1-outside-1_298_5588)"/>
<mask id="path-2-outside-2_298_5588" maskUnits="userSpaceOnUse" x="8.14673" y="8.13086" width="12" height="12" fill="black">
<rect fill="white" x="8.14673" y="8.13086" width="12" height="12"/>
<path d="M13.9999 18.869C14.1803 18.869 14.3394 18.7947 14.4614 18.6781C14.5781 18.5614 14.6523 18.3969 14.6523 18.2166V14.647H18.2219C18.4022 14.647 18.5613 14.5728 18.6833 14.4561C18.8 14.3394 18.8743 14.175 18.8743 13.9947C18.8743 13.634 18.5825 13.3423 18.2272 13.3476H14.6576V9.77801C14.6576 9.41734 14.3659 9.12563 14.0105 9.13093C13.6499 9.13093 13.3581 9.42265 13.3634 9.77801V13.3476H9.79388C9.43321 13.3476 9.1415 13.6393 9.1468 13.9947C9.1468 14.3553 9.43852 14.647 9.79388 14.6417H13.3634V18.2113C13.3475 18.5773 13.6393 18.869 13.9999 18.869Z"/>
</mask>
<path d="M13.9999 18.869C14.1803 18.869 14.3394 18.7947 14.4614 18.6781C14.5781 18.5614 14.6523 18.3969 14.6523 18.2166V14.647H18.2219C18.4022 14.647 18.5613 14.5728 18.6833 14.4561C18.8 14.3394 18.8743 14.175 18.8743 13.9947C18.8743 13.634 18.5825 13.3423 18.2272 13.3476H14.6576V9.77801C14.6576 9.41734 14.3659 9.12563 14.0105 9.13093C13.6499 9.13093 13.3581 9.42265 13.3634 9.77801V13.3476H9.79388C9.43321 13.3476 9.1415 13.6393 9.1468 13.9947C9.1468 14.3553 9.43852 14.647 9.79388 14.6417H13.3634V18.2113C13.3475 18.5773 13.6393 18.869 13.9999 18.869Z" fill="white"/>
<path d="M13.9999 18.869C14.1803 18.869 14.3394 18.7947 14.4614 18.6781C14.5781 18.5614 14.6523 18.3969 14.6523 18.2166V14.647H18.2219C18.4022 14.647 18.5613 14.5728 18.6833 14.4561C18.8 14.3394 18.8743 14.175 18.8743 13.9947C18.8743 13.634 18.5825 13.3423 18.2272 13.3476H14.6576V9.77801C14.6576 9.41734 14.3659 9.12563 14.0105 9.13093C13.6499 9.13093 13.3581 9.42265 13.3634 9.77801V13.3476H9.79388C9.43321 13.3476 9.1415 13.6393 9.1468 13.9947C9.1468 14.3553 9.43852 14.647 9.79388 14.6417H13.3634V18.2113C13.3475 18.5773 13.6393 18.869 13.9999 18.869Z" stroke="#817284" mask="url(#path-2-outside-2_298_5588)"/>
</svg>
