<svg width="20" height="26" viewBox="0 0 20 26" fill="none" xmlns="http://www.w3.org/2000/svg">
<path d="M18.6875 11.375H16.25V6.5C16.25 2.91596 13.334 0 9.75 0C6.16596 0 3.25 2.91596 3.25 6.5V11.375H0.8125C0.363797 11.375 0 11.7388 0 12.1875V25.1875C0 25.6362 0.363797 26 0.8125 26H18.6875C19.1362 26 19.5 25.6362 19.5 25.1875V12.1875C19.5 11.7388 19.1362 11.375 18.6875 11.375ZM4.875 6.5C4.875 3.81174 7.06179 1.625 9.75 1.625C12.4382 1.625 14.625 3.81179 14.625 6.5V11.375H13.8125V6.5C13.8125 4.26009 11.9899 2.4375 9.75 2.4375C7.51009 2.4375 5.6875 4.26009 5.6875 6.5V11.375H4.875V6.5ZM7.3125 11.375V6.5C7.3125 5.15587 8.40587 4.0625 9.75 4.0625C11.0941 4.0625 12.1875 5.15587 12.1875 6.5V11.375H7.3125ZM17.875 24.375H1.625V13H17.875V24.375Z" fill="#938696"/>
<path d="M9.75 15.4376C8.85254 15.4376 8.125 16.1651 8.125 17.0626C8.125 17.6626 8.45386 18.1807 8.9375 18.4622V20.3126C8.9375 20.7613 9.30125 21.1251 9.75 21.1251C10.1988 21.1251 10.5625 20.7613 10.5625 20.3126V18.4622C11.0461 18.1807 11.375 17.6626 11.375 17.0626C11.375 16.1651 10.6475 15.4376 9.75 15.4376Z" fill="#938696"/>
</svg>
