<svg width="24" height="25" viewBox="0 0 24 25" fill="none" xmlns="http://www.w3.org/2000/svg">
<mask id="path-1-outside-1_339_2773" maskUnits="userSpaceOnUse" x="0" y="0" width="24" height="25" fill="black">
<rect fill="white" width="24" height="25"/>
<path d="M1.68086 23.9914C4.56732 23.5222 7.33741 22.7903 9.39618 20.5914C9.4349 20.55 9.46224 20.508 9.48474 20.4658C13.613 16.4478 17.658 12.3391 21.3232 7.88998C21.5905 8.13271 21.8291 8.38943 22.0376 8.68838C20.1486 11.0862 18.1668 13.4048 16.0759 15.6297C15.5739 16.1636 16.4998 16.8263 16.9956 16.2988C19.1733 13.9817 21.2356 11.5647 23.1952 9.0604C23.3102 8.91321 23.3488 8.65834 23.2535 8.49126C22.8633 7.806 22.3773 7.30007 21.7921 6.79363C21.7677 6.74802 21.7375 6.70349 21.698 6.66201C22.7488 5.07683 22.6944 3.23906 21.2105 1.90774C19.739 0.587891 17.5208 0.816139 16.0096 1.89458C16.0091 1.89458 16.0085 1.89432 16.0078 1.89401C15.8322 1.78265 15.6057 1.7754 15.4068 1.97151C11.1699 6.14547 7.28185 10.6521 3.57331 15.2978C3.55775 15.317 3.54689 15.337 3.53485 15.3566C3.50648 15.3864 3.47965 15.4206 3.45506 15.4603C1.98864 17.8386 1.33997 20.4754 1.00474 23.2253C0.989842 23.3471 1.01112 23.4501 1.05382 23.5369C1.10524 23.81 1.32701 24.0489 1.68086 23.9914ZM20.8401 5.89238C19.5847 4.77114 18.3443 3.63439 17.0235 2.59115C19.3593 1.29508 22.3662 3.344 20.8401 5.89238ZM15.8542 3.12616C17.4816 4.3603 18.9743 5.75121 20.501 7.10534C16.9378 11.4433 13.0076 15.4479 8.99146 19.3638C7.56367 18.1374 6.09623 16.9564 4.78863 15.6004C8.26749 11.2609 11.9045 7.04545 15.8542 3.12616ZM4.12705 16.5496C5.4094 17.8477 6.82566 18.9993 8.21076 20.1871C6.91158 21.4355 5.26925 22.0692 3.55077 22.4733C3.19156 22.2119 2.82955 21.9497 2.52447 21.6248C2.49156 21.5901 2.45519 21.5606 2.41723 21.5339C2.74098 19.7925 3.24793 18.1086 4.12705 16.5496Z"/>
</mask>
<path d="M1.68086 23.9914C4.56732 23.5222 7.33741 22.7903 9.39618 20.5914C9.4349 20.55 9.46224 20.508 9.48474 20.4658C13.613 16.4478 17.658 12.3391 21.3232 7.88998C21.5905 8.13271 21.8291 8.38943 22.0376 8.68838C20.1486 11.0862 18.1668 13.4048 16.0759 15.6297C15.5739 16.1636 16.4998 16.8263 16.9956 16.2988C19.1733 13.9817 21.2356 11.5647 23.1952 9.0604C23.3102 8.91321 23.3488 8.65834 23.2535 8.49126C22.8633 7.806 22.3773 7.30007 21.7921 6.79363C21.7677 6.74802 21.7375 6.70349 21.698 6.66201C22.7488 5.07683 22.6944 3.23906 21.2105 1.90774C19.739 0.587891 17.5208 0.816139 16.0096 1.89458C16.0091 1.89458 16.0085 1.89432 16.0078 1.89401C15.8322 1.78265 15.6057 1.7754 15.4068 1.97151C11.1699 6.14547 7.28185 10.6521 3.57331 15.2978C3.55775 15.317 3.54689 15.337 3.53485 15.3566C3.50648 15.3864 3.47965 15.4206 3.45506 15.4603C1.98864 17.8386 1.33997 20.4754 1.00474 23.2253C0.989842 23.3471 1.01112 23.4501 1.05382 23.5369C1.10524 23.81 1.32701 24.0489 1.68086 23.9914ZM20.8401 5.89238C19.5847 4.77114 18.3443 3.63439 17.0235 2.59115C19.3593 1.29508 22.3662 3.344 20.8401 5.89238ZM15.8542 3.12616C17.4816 4.3603 18.9743 5.75121 20.501 7.10534C16.9378 11.4433 13.0076 15.4479 8.99146 19.3638C7.56367 18.1374 6.09623 16.9564 4.78863 15.6004C8.26749 11.2609 11.9045 7.04545 15.8542 3.12616ZM4.12705 16.5496C5.4094 17.8477 6.82566 18.9993 8.21076 20.1871C6.91158 21.4355 5.26925 22.0692 3.55077 22.4733C3.19156 22.2119 2.82955 21.9497 2.52447 21.6248C2.49156 21.5901 2.45519 21.5606 2.41723 21.5339C2.74098 19.7925 3.24793 18.1086 4.12705 16.5496Z" fill="#938696"/>
<path d="M1.68086 23.9914C4.56732 23.5222 7.33741 22.7903 9.39618 20.5914C9.4349 20.55 9.46224 20.508 9.48474 20.4658C13.613 16.4478 17.658 12.3391 21.3232 7.88998C21.5905 8.13271 21.8291 8.38943 22.0376 8.68838C20.1486 11.0862 18.1668 13.4048 16.0759 15.6297C15.5739 16.1636 16.4998 16.8263 16.9956 16.2988C19.1733 13.9817 21.2356 11.5647 23.1952 9.0604C23.3102 8.91321 23.3488 8.65834 23.2535 8.49126C22.8633 7.806 22.3773 7.30007 21.7921 6.79363C21.7677 6.74802 21.7375 6.70349 21.698 6.66201C22.7488 5.07683 22.6944 3.23906 21.2105 1.90774C19.739 0.587891 17.5208 0.816139 16.0096 1.89458C16.0091 1.89458 16.0085 1.89432 16.0078 1.89401C15.8322 1.78265 15.6057 1.7754 15.4068 1.97151C11.1699 6.14547 7.28185 10.6521 3.57331 15.2978C3.55775 15.317 3.54689 15.337 3.53485 15.3566C3.50648 15.3864 3.47965 15.4206 3.45506 15.4603C1.98864 17.8386 1.33997 20.4754 1.00474 23.2253C0.989842 23.3471 1.01112 23.4501 1.05382 23.5369C1.10524 23.81 1.32701 24.0489 1.68086 23.9914ZM20.8401 5.89238C19.5847 4.77114 18.3443 3.63439 17.0235 2.59115C19.3593 1.29508 22.3662 3.344 20.8401 5.89238ZM15.8542 3.12616C17.4816 4.3603 18.9743 5.75121 20.501 7.10534C16.9378 11.4433 13.0076 15.4479 8.99146 19.3638C7.56367 18.1374 6.09623 16.9564 4.78863 15.6004C8.26749 11.2609 11.9045 7.04545 15.8542 3.12616ZM4.12705 16.5496C5.4094 17.8477 6.82566 18.9993 8.21076 20.1871C6.91158 21.4355 5.26925 22.0692 3.55077 22.4733C3.19156 22.2119 2.82955 21.9497 2.52447 21.6248C2.49156 21.5901 2.45519 21.5606 2.41723 21.5339C2.74098 19.7925 3.24793 18.1086 4.12705 16.5496Z" stroke="#BA92B9" stroke-width="0.4" mask="url(#path-1-outside-1_339_2773)"/>
</svg>
