<svg width="23" height="17" viewBox="0 0 23 17" fill="none" xmlns="http://www.w3.org/2000/svg">
<path d="M22.2333 3.06667H6.89997C6.4783 3.06667 6.1333 2.72167 6.1333 2.3V0.766667C6.1333 0.345 6.4783 0 6.89997 0H22.2333C22.655 0 23 0.345 23 0.766667V2.3C23 2.72167 22.655 3.06667 22.2333 3.06667Z" fill="white"/>
<path d="M22.2333 9.96657H6.89997C6.4783 9.96657 6.1333 9.62157 6.1333 9.1999V7.66657C6.1333 7.2449 6.4783 6.8999 6.89997 6.8999H22.2333C22.655 6.8999 23 7.2449 23 7.66657V9.1999C23 9.62157 22.655 9.96657 22.2333 9.96657Z" fill="white"/>
<path d="M2.3 9.96657H0.766667C0.345 9.96657 0 9.62157 0 9.1999V7.66657C0 7.2449 0.345 6.8999 0.766667 6.8999H2.3C2.72167 6.8999 3.06667 7.2449 3.06667 7.66657V9.1999C3.06667 9.62157 2.72167 9.96657 2.3 9.96657Z" fill="white"/>
<path d="M2.3 3.06667H0.766667C0.345 3.06667 0 2.72167 0 2.3V0.766667C0 0.345 0.345 0 0.766667 0H2.3C2.72167 0 3.06667 0.345 3.06667 0.766667V2.3C3.06667 2.72167 2.72167 3.06667 2.3 3.06667Z" fill="white"/>
<path d="M2.3 16.8667H0.766667C0.345 16.8667 0 16.5217 0 16.1V14.5667C0 14.145 0.345 13.8 0.766667 13.8H2.3C2.72167 13.8 3.06667 14.145 3.06667 14.5667V16.1C3.06667 16.5217 2.72167 16.8667 2.3 16.8667Z" fill="white"/>
<path d="M22.2333 16.8667H6.89997C6.4783 16.8667 6.1333 16.5217 6.1333 16.1V14.5667C6.1333 14.145 6.4783 13.8 6.89997 13.8H22.2333C22.655 13.8 23 14.145 23 14.5667V16.1C23 16.5217 22.655 16.8667 22.2333 16.8667Z" fill="white"/>
</svg>
