<svg width="25" height="24" viewBox="0 0 25 24" fill="none" xmlns="http://www.w3.org/2000/svg">
<path d="M23.717 22.2894L16.8254 15.3929C18.184 13.7635 19.0011 11.6813 19.0011 9.40703C19.0011 4.21864 14.7431 0 9.50549 0C4.26787 0 0 4.22357 0 9.41196C0 14.6003 4.25802 18.819 9.49564 18.819C11.7206 18.819 13.7684 18.056 15.3929 16.781L22.3091 23.6973C22.7127 24.1009 23.3133 24.1009 23.717 23.6973C24.1206 23.2936 24.1206 22.6931 23.717 22.2894ZM2.01825 9.41196C2.01825 5.33607 5.37545 2.02318 9.49564 2.02318C13.6158 2.02318 16.973 5.33607 16.973 9.41196C16.973 13.4878 13.6158 16.8007 9.49564 16.8007C5.37545 16.8007 2.01825 13.4829 2.01825 9.41196Z" fill="#BFBDC0"/>
</svg>
