<svg width="21" height="23" viewBox="0 0 21 23" fill="none" xmlns="http://www.w3.org/2000/svg">
<path fill-rule="evenodd" clip-rule="evenodd" d="M13.8 0C17.6108 0 20.7 3.08924 20.7 6.9C20.7 10.6242 17.7496 13.6592 14.0587 13.7952L13.8 13.8H8.05V16.1H12.65C13.2851 16.1 13.8 16.6149 13.8 17.25C13.8 17.8851 13.2851 18.4 12.65 18.4H8.05V21.85C8.05 22.4851 7.53513 23 6.9 23C6.26487 23 5.75 22.4851 5.75 21.85V18.4H1.15C0.514872 18.4 0 17.8851 0 17.25C0 16.6149 0.514872 16.1 1.15 16.1H5.75V13.8H1.15C0.514872 13.8 0 13.2851 0 12.65C0 12.0602 0.443946 11.5742 1.01589 11.5077L1.15 11.5H5.75V1.15C5.75 0.514872 6.26487 0 6.9 0H13.8ZM13.8 2.3H8.05V11.5H13.8C16.3405 11.5 18.4 9.44051 18.4 6.9C18.4 4.43648 16.4634 2.42526 14.0296 2.30563L13.8 2.3Z" fill="white"/>
</svg>
