<svg width="25" height="25" viewBox="0 0 25 25" fill="none" xmlns="http://www.w3.org/2000/svg">
<path d="M19.2414 1.39655V9.32759M19.2414 15.6724V23.6034M1 2.58621C1 1.71018 1.71018 1 2.58621 1H22.4138C23.2899 1 24 1.71018 24 2.58621V8.13793C24 9.01396 23.2899 9.72414 22.4138 9.72414H2.58621C1.71016 9.72414 1 9.01396 1 8.13793V2.58621ZM1 16.8621C1 15.986 1.71018 15.2759 2.58621 15.2759H22.4138C23.2899 15.2759 24 15.986 24 16.8621V22.4138C24 23.2899 23.2899 24 22.4138 24H2.58621C1.71016 24 1 23.2899 1 22.4138V16.8621Z" stroke="#8390AE" stroke-width="1.5" stroke-linecap="round" stroke-linejoin="round"/>
</svg>
