<svg width="24" height="23" viewBox="0 0 24 23" fill="none" xmlns="http://www.w3.org/2000/svg">
<path d="M0 11.5025C0 11.9491 0.361946 12.311 0.808502 12.311H16.2076L13.204 15.31C12.889 15.6249 12.889 16.1373 13.204 16.4522C13.3591 16.6074 13.5659 16.6873 13.7727 16.6873C13.9796 16.6873 14.1864 16.6074 14.3415 16.4522L18.7178 12.076C19.0327 11.761 19.0327 11.2487 18.7178 10.9337L14.3415 6.55749C14.0266 6.24255 13.5142 6.24255 13.1993 6.55749C12.8843 6.87243 12.8843 7.3848 13.1993 7.69974L16.1982 10.6987H0.808502C0.361946 10.6987 0 11.056 0 11.5025Z" fill="#A08AA6"/>
<path d="M18.6331 23C21.2983 23 23.4606 20.833 23.4606 18.1678V4.83221C23.4606 2.16697 21.2936 0 18.6331 0H5.29748C2.63224 0 0.469971 2.16697 0.469971 4.83221V7.57265C0.469971 8.01921 0.831916 8.37646 1.27377 8.37646C1.72033 8.37646 2.08227 8.01451 2.08227 7.57265V4.83221C2.08227 3.06009 3.52536 1.6123 5.29748 1.6123H18.6331C20.4052 1.6123 21.8483 3.05538 21.8483 4.83221V18.1678C21.8483 19.9399 20.4052 21.3877 18.6331 21.3877H5.29748C3.52536 21.3877 2.08227 19.9446 2.08227 18.1678V15.4602C2.08227 15.0137 1.72033 14.6517 1.27377 14.6517C0.827216 14.6517 0.469971 15.0137 0.469971 15.4602V18.1678C0.469971 20.833 2.63694 23 5.29748 23H18.6331Z" fill="#A08AA6"/>
</svg>
