<svg width="26" height="26" viewBox="0 0 26 26" fill="none" xmlns="http://www.w3.org/2000/svg">
<path d="M13 0C5.82174 0 0 5.82174 0 13C0 20.1783 5.82174 26 13 26C20.1783 26 26 20.1783 26 13C26 5.82174 20.1783 0 13 0ZM14.0457 23.6826C13.9891 23.6826 13.9326 23.6826 13.8478 23.7109V17.5783C15.3174 17.55 16.6457 17.5217 17.8609 17.437C16.787 20.7435 14.7804 22.9478 14.0457 23.6826ZM11.9543 23.6826C11.1913 22.9196 9.21304 20.7152 8.13913 17.437C9.32609 17.5217 10.6826 17.5783 12.1522 17.5783V23.7109C12.0957 23.7109 12.0391 23.6826 11.9543 23.6826ZM2.26087 13C2.26087 12.2935 2.34565 11.587 2.4587 10.9087C3.08043 10.7957 4.26739 10.6261 5.93478 10.4565C5.79348 11.2761 5.7087 12.1239 5.7087 13.0283C5.7087 13.9326 5.79348 14.7804 5.90652 15.5717C4.26739 15.4022 3.05217 15.2326 2.43043 15.1196C2.34565 14.413 2.26087 13.7065 2.26087 13ZM7.43261 13C7.43261 12.0391 7.54565 11.1348 7.71522 10.287C9.01522 10.2022 10.4848 10.1174 12.1522 10.1174V15.8826C10.513 15.8543 9.01522 15.7978 7.68696 15.6848C7.54565 14.8652 7.43261 13.9609 7.43261 13ZM14.0174 2.31739C14.7804 3.08043 16.7304 5.3413 17.8326 8.56304C16.6457 8.47826 15.3174 8.42174 13.8478 8.42174V2.28913C13.9043 2.28913 13.9609 2.31739 14.0174 2.31739ZM12.1522 2.28913V8.42174C10.6826 8.45 9.35435 8.47826 8.16739 8.56304C9.2413 5.3413 11.2196 3.08043 11.9543 2.31739C12.0391 2.31739 12.0957 2.28913 12.1522 2.28913ZM13.8478 15.8826V10.1174C15.487 10.1457 16.9848 10.2022 18.2848 10.287C18.4543 11.1348 18.5674 12.0391 18.5674 13C18.5674 13.9609 18.4826 14.8652 18.313 15.713C17.013 15.7978 15.5152 15.8543 13.8478 15.8826ZM20.037 10.4565C21.7043 10.6261 22.8913 10.7957 23.513 10.9087C23.6543 11.587 23.7391 12.2935 23.7391 13C23.7391 13.7065 23.6543 14.413 23.5413 15.0913C22.9196 15.2043 21.7326 15.3739 20.0652 15.5435C20.2065 14.7239 20.263 13.8761 20.263 12.9717C20.263 12.1239 20.1783 11.2478 20.037 10.4565ZM23.0043 9.1C22.213 8.98696 21.0826 8.84565 19.6413 8.70435C18.963 6.27391 17.7761 4.32391 16.787 2.93913C19.6413 4.01304 21.9022 6.27391 23.0043 9.1ZM9.21304 2.93913C8.19565 4.29565 7.03696 6.24565 6.3587 8.67609C4.94565 8.78913 3.81522 8.9587 2.99565 9.07174C4.09783 6.27391 6.38696 4.01304 9.21304 2.93913ZM2.99565 16.9C3.78696 17.013 4.91739 17.1543 6.33043 17.2957C7.0087 19.7261 8.13913 21.6761 9.15652 23.0326C6.33044 21.9304 4.09783 19.6978 2.99565 16.9ZM16.8435 23.0326C17.8609 21.6761 18.9913 19.7543 19.6696 17.3239C21.0826 17.2109 22.213 17.0413 23.0043 16.9283C21.9022 19.6978 19.6696 21.9304 16.8435 23.0326Z" fill="white"/>
</svg>
