<svg width="20" height="26" viewBox="0 0 20 26" fill="none" xmlns="http://www.w3.org/2000/svg">
<path d="M3.20323 0.692425L5.00148 0.150385C6.69473 -0.360004 8.50385 0.464832 9.22897 2.07784L10.3484 4.56792C10.9664 5.94278 10.6407 7.55857 9.53829 8.58662L7.5829 10.41C7.55874 10.4326 7.5389 10.4594 7.52436 10.4891C7.31985 10.9071 7.62977 12.024 8.60423 13.7118C9.70256 15.6142 10.5515 16.367 10.9436 16.2501L13.5105 15.4653C14.9516 15.0247 16.5134 15.5501 17.3951 16.7722L18.9849 18.9756C20.017 20.406 19.8314 22.3793 18.5507 23.5922L17.1834 24.8871C16.2177 25.8017 14.8653 26.1856 13.563 25.9149C9.75265 25.1227 6.33877 22.0543 3.29275 16.7784C0.243732 11.4974 -0.705556 7.00294 0.519067 3.30499C0.935 2.04902 1.93647 1.07426 3.20323 0.692425ZM3.67222 2.24832C2.91216 2.47742 2.31128 3.06228 2.06172 3.81586C1.00653 7.00218 1.86126 11.0489 4.70008 15.9659C7.5362 20.8782 10.6103 23.6412 13.8938 24.3239C14.6751 24.4863 15.4866 24.256 16.066 23.7072L17.4333 22.4123C18.1229 21.7592 18.2229 20.6966 17.6671 19.9264L16.0773 17.7231C15.6025 17.065 14.7616 16.7821 13.9856 17.0194L11.4132 17.8058C9.98952 18.2302 8.65141 17.0436 7.19691 14.5244C5.96558 12.3916 5.53813 10.8512 6.06465 9.77493C6.1664 9.56695 6.30538 9.37937 6.47467 9.22152L8.43002 7.39814C9.02364 6.84457 9.19903 5.97453 8.86622 5.23422L7.74681 2.74414C7.35636 1.8756 6.38222 1.43146 5.47047 1.70628L3.67222 2.24832Z" fill="#A08AA6"/>
</svg>
