<svg width="27" height="23" viewBox="0 0 27 23" fill="none" xmlns="http://www.w3.org/2000/svg">
<path d="M25.2973 10.0024H24.6597V6.1718C24.6597 4.6055 23.3847 3.33596 21.8239 3.33596H21.2358L21.2413 1.91254C21.2413 0.857348 20.384 0 19.3288 0H2.32473C1.0552 0 0.0164875 1.02222 0 2.29176C0 2.30275 0 2.31374 0 2.32473V21.0875C0 22.1427 0.857348 23 1.91254 23H21.8294C23.3957 23 24.6652 21.725 24.6652 20.1642V16.3281H25.3027C26.1271 16.3281 26.7976 15.6576 26.7976 14.8332V11.4973C26.7921 10.6729 26.1216 10.0024 25.2973 10.0024ZM2.32473 1.319H19.3288C19.653 1.319 19.9223 1.5828 19.9223 1.90705L19.9168 3.33596H2.32473C1.76965 3.33596 1.319 2.8853 1.319 2.33023C1.319 1.77515 1.76965 1.319 2.32473 1.319ZM23.3407 20.1587C23.3407 20.994 22.6593 21.6755 21.8239 21.6755H1.90705C1.5828 21.6755 1.3135 21.4117 1.3135 21.082V4.42413C1.62127 4.57252 1.96201 4.65496 2.32473 4.65496H21.8239C22.6593 4.65496 23.3407 5.33644 23.3407 6.1718V10.0024H18.8397C18.0153 10.0024 17.3448 10.6729 17.3448 11.4973V14.8332C17.3448 15.6576 18.0153 16.3281 18.8397 16.3281H23.3407V20.1587V20.1587ZM25.4731 14.8332C25.4731 14.9321 25.3962 15.0091 25.2973 15.0091H18.8452C18.7462 15.0091 18.6693 14.9321 18.6693 14.8332V11.4973C18.6693 11.4038 18.7462 11.3214 18.8452 11.3214H25.2973C25.3907 11.3214 25.4731 11.3983 25.4731 11.4973V14.8332Z" fill="#938696"/>
</svg>
