<svg width="25" height="25" viewBox="0 0 25 25" fill="none" xmlns="http://www.w3.org/2000/svg">
<path d="M12.5 24C18.8513 24 24 18.8513 24 12.5C24 6.14872 18.8513 1 12.5 1C6.14872 1 1 6.14872 1 12.5C1 18.8513 6.14872 24 12.5 24Z" stroke="#A18AA6" stroke-width="1.5"/>
<path d="M1 10.6835C2.73354 9.86492 4.01568 9.7509 4.84641 10.3414C6.09255 11.2272 6.24877 14.8371 9.08306 13.1118C11.9174 11.3865 7.86935 10.6835 8.74813 8.18425C9.6269 5.68501 12.5048 7.62639 12.7909 4.88881C12.9816 3.06371 10.7985 2.36538 6.24147 2.7938" stroke="#A18AA6" stroke-width="1.5"/>
<path d="M19.4003 3.2998C16.1145 6.16825 14.967 7.90044 15.9576 8.49625C17.4434 9.39003 18.0739 8.1317 19.8871 8.49625C21.7003 8.86086 21.3077 11.3186 20.354 11.3186C19.4003 11.3186 14.461 10.6896 14.7098 13.5722C14.9586 16.4547 17.9295 16.8815 17.9295 18.4919C17.9295 19.5656 17.2722 21.2088 15.9576 23.4215" stroke="#A18AA6" stroke-width="1.5" stroke-linecap="round"/>
<path d="M2.21004 17.6327C2.73414 17.4041 3.12812 17.2365 3.39195 17.1299C5.60403 16.2362 7.24542 16.0256 8.31601 16.498C10.2092 17.3334 9.48137 19.0206 10.0744 19.6421C10.6673 20.2637 12.148 20.0829 12.148 21.2653C12.148 22.0536 11.8833 22.9441 11.3537 23.9368" stroke="#A18AA6" stroke-width="1.5" stroke-linecap="round"/>
</svg>
