<svg width="26" height="19" viewBox="0 0 26 19" fill="none" xmlns="http://www.w3.org/2000/svg">
<path d="M2.11355 18.5676H23.8864C25.0517 18.5676 26 17.5677 26 16.3387V2.22885C26 1.00562 25.0601 0.0113262 23.9024 0.00185676C23.8987 0.00167108 23.8954 0 23.8919 0H23.8864H2.11355H2.10811C2.10442 0 2.10108 0.00167108 2.09757 0.00185676C0.939865 0.0113262 9.75842e-08 1.00562 9.75842e-08 2.22885V16.3387C-0.000351254 17.5677 0.948122 18.5676 2.11355 18.5676ZM2.3342 17.0822L9.53673 8.83519L12.5292 11.6918C12.6629 11.8194 12.8312 11.8832 12.9996 11.8832C13.1683 11.8832 13.3366 11.8194 13.4705 11.6918L16.4627 8.83519L23.6654 17.0822H2.3342ZM24.1117 1.53312C24.3903 1.6332 24.5944 1.90262 24.5944 2.22867V15.9566L17.5056 7.83978L24.1117 1.53312ZM22.0657 1.48541L12.9996 10.1396L3.93408 1.48541H22.0657ZM1.40505 2.22885C1.40505 1.9028 1.60919 1.63339 1.88781 1.53331L8.49392 7.83997L1.40505 15.9566V2.22885Z" fill="white"/>
</svg>
