<svg width="23" height="24" viewBox="0 0 23 24" fill="none" xmlns="http://www.w3.org/2000/svg">
<path d="M21.4252 1.57532C19.3252 -0.524697 15.908 -0.525131 13.8077 1.57416L13.8082 1.5746L10.4852 4.89816L12.0191 6.43174L15.3426 3.10746L15.3423 3.10717C16.5972 1.85442 18.6373 1.85514 19.8913 3.10919C21.1455 4.36325 21.1454 6.40426 19.8913 7.65875L14.9043 12.6455C14.2968 13.2531 13.489 13.5877 12.6297 13.5877C11.7705 13.5877 10.9625 13.2531 10.355 12.6455L8.82117 14.1792C9.83849 15.1965 11.1912 15.7569 12.6299 15.7569C14.0686 15.7569 15.4213 15.1965 16.4382 14.1792L21.4253 9.19248C23.5249 7.09203 23.5249 3.6749 21.4252 1.57532Z" fill="#938696"/>
<path d="M7.65839 20.4133C6.4039 21.667 4.36303 21.6667 3.10883 20.4125C1.85463 19.1581 1.85463 17.1168 3.10869 15.8624L8.09511 10.876C9.3496 9.62165 11.3906 9.62165 12.6448 10.876L14.1788 9.34227C12.0785 7.2421 8.6614 7.24196 6.56138 9.34227L1.57467 14.3287C-0.524914 16.4289 -0.524914 19.8461 1.57481 21.9464C2.62511 22.9966 4.0044 23.5217 5.38397 23.5215C6.76297 23.5215 8.14225 22.9967 9.19197 21.9471L9.19226 21.947L12.516 18.6224L10.9819 17.0887L7.65839 20.4133Z" fill="#938696"/>
</svg>
