<svg width="59" height="58" viewBox="0 0 59 58" fill="none" xmlns="http://www.w3.org/2000/svg">
<path fill-rule="evenodd" clip-rule="evenodd" d="M29.1488 0.52002L38.2749 19.1014L58.12 22.3687L43.915 37.119L47.0545 57.72L29.1488 48.2549L11.2432 57.72L13.8926 40.3344C16.2782 40.5806 18.4463 40.7959 20.8313 40.7959C21.6081 40.7959 22.2378 40.1698 22.2378 39.3966V31.5998C22.2378 30.8266 22.0015 30.4561 21.1736 30.2454C15.3384 29.3555 12.2704 28.8694 5.54806 27.9456L0.177124 22.3687L20.0222 19.1014L29.1488 0.52002ZM36.6861 33.2273C36.6861 32.7156 36.4311 32.237 36.0066 31.9499C36.3361 31.5234 36.5489 31.018 36.621 30.4847C36.621 29.0474 35.2661 28.6179 33.1795 28.6179C31.9396 28.6313 30.7037 28.7772 29.4948 29.052C29.6079 28.4358 30.4328 26.649 30.4328 26.0514C30.4328 24.8102 30.1373 23.2516 28.9935 22.6587C28.6839 22.4819 28.3339 22.3885 27.9763 22.3885C27.9657 22.3885 27.954 22.3885 27.9429 22.3885C27.4862 22.3669 27.0382 22.5245 26.6958 22.8273C26.6097 22.9849 26.5633 23.1623 26.5633 23.3426C26.5633 23.3788 26.5657 23.4161 26.5692 23.4529L26.7762 25.7859C26.7762 27.6515 23.8928 29.9851 23.8928 32.6683V38.2954C23.8928 39.2939 25.2383 40.0035 27.1742 40.0035H32.5417C33.9487 40.0035 34.2624 39.7613 34.6236 39.1077C34.7426 38.9082 34.8059 38.6812 34.8059 38.4495C34.8059 38.1992 34.732 37.9541 34.5954 37.7452C35.2661 37.496 35.7639 36.9247 35.9175 36.2285C36.0007 35.8189 35.9374 35.3935 35.7392 35.0247C36.3132 34.7621 36.682 34.1908 36.682 33.5611C36.682 33.5185 36.6802 33.4759 36.6767 33.4333L36.6861 33.2273Z" fill="white"/>
</svg>
