<svg width="101" height="39" viewBox="0 0 101 39" fill="none" xmlns="http://www.w3.org/2000/svg">
<path d="M5.34514 18.7192C4.38662 18.7192 3.4563 18.6008 2.55416 18.364C1.65203 18.1272 0.919048 17.8115 0.355215 17.4168L1.45469 14.9472C1.98469 15.2968 2.59927 15.5787 3.29842 15.7929C3.99758 16.0072 4.68545 16.1143 5.36205 16.1143C6.64759 16.1143 7.29036 15.7929 7.29036 15.1502C7.29036 14.8119 7.1043 14.5638 6.73217 14.4059C6.37132 14.2368 5.78493 14.062 4.97301 13.8815C4.08215 13.6898 3.33789 13.4869 2.74023 13.2726C2.14257 13.0471 1.62948 12.6919 1.20096 12.207C0.772452 11.7221 0.558195 11.068 0.558195 10.2448C0.558195 9.52311 0.755537 8.8747 1.15022 8.29959C1.5449 7.71321 2.13129 7.25086 2.90938 6.91256C3.69875 6.57426 4.6629 6.40511 5.80185 6.40511C6.57994 6.40511 7.34675 6.49533 8.10229 6.67575C8.85782 6.8449 9.52314 7.09863 10.0983 7.43693L9.06644 9.92343C7.93877 9.31449 6.84494 9.01002 5.78493 9.01002C5.11961 9.01002 4.63471 9.11151 4.33024 9.31449C4.02577 9.5062 3.87354 9.75992 3.87354 10.0757C3.87354 10.3914 4.05396 10.6282 4.41481 10.7861C4.77567 10.944 5.35642 11.1075 6.15706 11.2766C7.05919 11.4683 7.80345 11.677 8.38984 11.9025C8.9875 12.1167 9.50059 12.4663 9.9291 12.9512C10.3689 13.4248 10.5888 14.0732 10.5888 14.8964C10.5888 15.6069 10.3914 16.2496 9.99676 16.8248C9.60208 17.3999 9.01006 17.8622 8.22069 18.2118C7.43132 18.5501 6.47281 18.7192 5.34514 18.7192ZM14.491 9.29758H10.8543V6.64192H21.46V9.29758H17.8402V18.4824H14.491V9.29758ZM30.0462 16.182H25.0394L24.109 18.4824H20.6922L25.9189 6.64192H29.2174L34.461 18.4824H30.9765L30.0462 16.182ZM29.0651 13.7124L27.5428 9.92343L26.0204 13.7124H29.0651ZM40.5865 15.3362H38.7597V18.4824H35.4105V6.64192H40.8233C41.8946 6.64192 42.8249 6.82235 43.6143 7.1832C44.4036 7.53278 45.0126 8.04023 45.4411 8.70555C45.8696 9.3596 46.0839 10.1321 46.0839 11.0229C46.0839 11.8799 45.8809 12.6298 45.4749 13.2726C45.0802 13.9041 44.5108 14.4003 43.7665 14.7611L46.3207 18.4824H42.7347L40.5865 15.3362ZM42.7009 11.0229C42.7009 10.4704 42.5261 10.0418 42.1765 9.73737C41.8269 9.4329 41.3082 9.28066 40.6203 9.28066H38.7597V12.7482H40.6203C41.3082 12.7482 41.8269 12.6016 42.1765 12.3084C42.5261 12.004 42.7009 11.5755 42.7009 11.0229ZM1.18405 23.6419H4.53322V32.8268H10.1828V35.4824H1.18405V23.6419ZM11.5081 23.6419H14.8573V35.4824H11.5081V23.6419ZM21.8071 31.186L20.5554 32.5223V35.4824H17.2401V23.6419H20.5554V28.5642L25.1394 23.6419H28.8269L23.9892 28.8856L29.0806 35.4824H25.1901L21.8071 31.186ZM39.4656 32.8944V35.4824H29.9594V23.6419H39.2457V26.2299H33.2747V28.2259H38.5353V30.7293H33.2747V32.8944H39.4656ZM45.4852 35.7192C44.5267 35.7192 43.5964 35.6008 42.6942 35.364C41.7921 35.1272 41.0591 34.8115 40.4953 34.4168L41.5948 31.9472C42.1248 32.2968 42.7394 32.5787 43.4385 32.7929C44.1377 33.0072 44.8255 33.1143 45.5021 33.1143C46.7877 33.1143 47.4304 32.7929 47.4304 32.1502C47.4304 31.8119 47.2444 31.5638 46.8723 31.4059C46.5114 31.2368 45.925 31.062 45.1131 30.8815C44.2222 30.6898 43.478 30.4869 42.8803 30.2726C42.2826 30.0471 41.7696 29.6919 41.341 29.207C40.9125 28.7221 40.6983 28.068 40.6983 27.2448C40.6983 26.5231 40.8956 25.8747 41.2903 25.2996C41.685 24.7132 42.2714 24.2509 43.0495 23.9126C43.8388 23.5743 44.803 23.4051 45.9419 23.4051C46.72 23.4051 47.4868 23.4953 48.2424 23.6758C48.9979 23.8449 49.6632 24.0986 50.2383 24.4369L49.2065 26.9234C48.0789 26.3145 46.985 26.01 45.925 26.01C45.2597 26.01 44.7748 26.1115 44.4703 26.3145C44.1659 26.5062 44.0136 26.7599 44.0136 27.0757C44.0136 27.3914 44.194 27.6282 44.5549 27.7861C44.9158 27.944 45.4965 28.1075 46.2971 28.2766C47.1993 28.4683 47.9435 28.677 48.5299 28.9025C49.1276 29.1167 49.6407 29.4663 50.0692 29.9512C50.509 30.4248 50.7289 31.0732 50.7289 31.8964C50.7289 32.6069 50.5315 33.2496 50.1368 33.8248C49.7422 34.3999 49.1501 34.8622 48.3608 35.2118C47.5714 35.5501 46.6129 35.7192 45.4852 35.7192Z" fill="#B55AD7"/>
<path fill-rule="evenodd" clip-rule="evenodd" d="M81.5907 0L87.7025 12.4441L100.993 14.6323L91.4797 24.5108L93.5823 38.3075L81.5907 31.9686L69.5991 38.3075L71.3734 26.6641C72.9711 26.829 74.423 26.9733 76.0203 26.9733C76.5406 26.9733 76.9622 26.5539 76.9622 26.0361V20.8145C76.9622 20.2967 76.804 20.0485 76.2496 19.9074C72.3417 19.3114 70.287 18.9859 65.785 18.3672L62.188 14.6323L75.4785 12.4441L81.5907 0ZM86.6385 21.9045C86.6385 21.5617 86.4677 21.2413 86.1834 21.049C86.4041 20.7633 86.5466 20.4249 86.5949 20.0677C86.5949 19.1051 85.6875 18.8175 84.2901 18.8175C83.4597 18.8264 82.632 18.9241 81.8223 19.1082C81.8981 18.6955 82.4506 17.4989 82.4506 17.0987C82.4506 16.2674 82.2527 15.2236 81.4866 14.8265C81.2793 14.7081 81.0449 14.6456 80.8054 14.6456C80.7983 14.6456 80.7905 14.6456 80.783 14.6456C80.4772 14.6311 80.1772 14.7366 79.9479 14.9395C79.8902 15.045 79.8591 15.1638 79.8591 15.2845C79.8591 15.3088 79.8607 15.3338 79.8631 15.3584L80.0017 16.9209C80.0017 18.1703 78.0707 19.7331 78.0707 21.5301V25.2986C78.0707 25.9673 78.9718 26.4425 80.2683 26.4425H83.8629C84.8052 26.4425 85.0153 26.2803 85.2572 25.8426C85.3369 25.709 85.3793 25.557 85.3793 25.4018C85.3793 25.2342 85.3298 25.07 85.2383 24.9301C85.6875 24.7632 86.0208 24.3806 86.1237 23.9144C86.1795 23.64 86.1371 23.3551 86.0044 23.1082C86.3887 22.9323 86.6357 22.5497 86.6357 22.128C86.6357 22.0995 86.6345 22.0709 86.6322 22.0424L86.6385 21.9045Z" fill="#B55AD7"/>
</svg>
