<svg width="53" height="53" viewBox="0 0 53 53" fill="none" xmlns="http://www.w3.org/2000/svg">
<rect width="53" height="53" rx="26.5" fill="#1C96DB"/>
<path d="M26.5001 12.3912L31.6848 19.9769L40.5022 22.5643L34.8893 29.8395L35.1531 39.0237L26.5001 35.9345L17.8471 39.0237L18.1109 29.8395L12.498 22.5643L21.3154 19.9769L26.5001 12.3912ZM26.5001 16.7392L22.8465 22.0858L16.6325 23.9077L20.5891 29.0335L20.4014 35.5051L26.5001 33.3287L32.5976 35.5051L32.4111 29.0335L36.3664 23.9077L30.1537 22.0858L26.5001 16.7392ZM24.0464 26.5C24.0464 27.1508 24.3049 27.7749 24.7651 28.2351C25.2252 28.6952 25.8493 28.9537 26.5001 28.9537C27.1509 28.9537 27.775 28.6952 28.2351 28.2351C28.6953 27.7749 28.9538 27.1508 28.9538 26.5H31.4075C31.4075 27.8016 30.8905 29.0498 29.9702 29.9701C29.0499 30.8904 27.8016 31.4074 26.5001 31.4074C25.1986 31.4074 23.9504 30.8904 23.03 29.9701C22.1097 29.0498 21.5927 27.8016 21.5927 26.5H24.0464Z" fill="white"/>
</svg>
