<svg width="16" height="10" viewBox="0 0 16 10" fill="none" xmlns="http://www.w3.org/2000/svg">
<path d="M15.6082 4.60763C15.4683 4.41948 12.1333 0 7.86907 0C3.6048 0 0.269805 4.41948 0.129904 4.60763C-0.0433014 4.84055 -0.0433014 5.1595 0.129904 5.39242C0.269805 5.58057 3.6048 10 7.86907 10C12.1333 10 15.4683 5.58057 15.6082 5.39242C15.7815 5.15955 15.7815 4.84055 15.6082 4.60763ZM7.86907 7.63357C6.41692 7.63357 5.23553 6.45218 5.23553 5.00003C5.23553 3.54782 6.41692 2.36643 7.86907 2.36643C9.32128 2.36643 10.5027 3.54782 10.5027 5.00003C10.5027 6.45218 9.32123 7.63357 7.86907 7.63357Z" fill="white"/>
<path d="M7.86915 6.11861C8.48695 6.11861 8.98778 5.61778 8.98778 4.99998C8.98778 4.38217 8.48695 3.88135 7.86915 3.88135C7.25135 3.88135 6.75052 4.38217 6.75052 4.99998C6.75052 5.61778 7.25135 6.11861 7.86915 6.11861Z" fill="white"/>
</svg>
