<svg width="21" height="18" viewBox="0 0 21 18" fill="none" xmlns="http://www.w3.org/2000/svg">
<path d="M18.9362 7.99188H18.5842V5.37592C18.5842 4.21003 17.6353 3.26526 16.4735 3.26526H16.157L16.1605 2.35642V2.35603C16.1605 1.55265 15.5079 0.9 14.7045 0.9H2.64828C1.6936 0.9 0.912411 1.66859 0.900008 2.6236L0.9 2.6236V2.6249V2.62494V2.62499V2.62503V2.62508V2.62513V2.62517V2.62522V2.62526V2.62531V2.62535V2.6254V2.62545V2.62549V2.62554V2.62558V2.62563V2.62567V2.62572V2.62576V2.62581V2.62586V2.6259V2.62595V2.62599V2.62604V2.62608V2.62613V2.62618V2.62622V2.62627V2.62631V2.62636V2.6264V2.62645V2.6265V2.62654V2.62659V2.62663V2.62668V2.62672V2.62677V2.62682V2.62686V2.62691V2.62695V2.627V2.62704V2.62709V2.62713V2.62718V2.62723V2.62727V2.62732V2.62736V2.62741V2.62745V2.6275V2.62755V2.62759V2.62764V2.62768V2.62773V2.62777V2.62782V2.62787V2.62791V2.62796V2.628V2.62805V2.62809V2.62814V2.62819V2.62823V2.62828V2.62832V2.62837V2.62841V2.62846V2.6285V2.62855V2.6286V2.62864V2.62869V2.62873V2.62878V2.62882V2.62887V2.62892V2.62896V2.62901V2.62905V2.6291V2.62914V2.62919V2.62924V2.62928V2.62933V2.62937V2.62942V2.62946V2.62951V2.62955V2.6296V2.62965V2.62969V2.62974V2.62978V2.62983V2.62987V2.62992V2.62997V2.63001V2.63006V2.6301V2.63015V2.63019V2.63024V2.63029V2.63033V2.63038V2.63042V2.63047V2.63051V2.63056V2.63061V2.63065V2.6307V2.63074V2.63079V2.63083V2.63088V2.63092V2.63097V2.63102V2.63106V2.63111V2.63115V2.6312V2.63124V2.63129V2.63134V2.63138V2.63143V2.63147V2.63152V2.63156V2.63161V2.63166V2.6317V2.63175V2.63179V2.63184V2.63188V2.63193V2.63198V2.63202V2.63207V2.63211V2.63216V2.6322V2.63225V2.63229V2.63234V2.63239V2.63243V2.63248V2.63252V2.63257V2.63261V2.63266V2.63271V2.63275V2.6328V2.63284V2.63289V2.63293V2.63298V2.63303V2.63307V2.63312V2.63316V2.63321V2.63325V2.6333V2.63335V2.63339V2.63344V2.63348V2.63353V2.63357V2.63362V2.63366V2.63371V2.63376V2.6338V2.63385V2.63389V2.63394V2.63398V2.63403V2.63408V2.63412V2.63417V2.63421V2.63426V2.6343V2.63435V2.6344V2.63444V2.63449V2.63453V2.63458V2.63462V2.63467V2.63471V2.63476V2.63481V2.63485V2.6349V2.63494V2.63499V2.63503V2.63508V2.63513V2.63517V2.63522V2.63526V2.63531V2.63535V2.6354V2.63545V2.63549V2.63554V2.63558V2.63563V2.63567V2.63572V2.63577V2.63581V2.63586V2.6359V2.63595V2.63599V2.63604V2.63608V2.63613V2.63618V2.63622V2.63627V2.63631V2.63636V2.6364V2.63645V2.6365V2.63654V2.63659V2.63663V2.63668V2.63672V2.63677V2.63682V2.63686V2.63691V2.63695V2.637V2.63704V2.63709V2.63714V2.63718V2.63723V2.63727V2.63732V2.63736V2.63741V2.63745V2.6375V2.63755V2.63759V2.63764V2.63768V2.63773V2.63777V2.63782V2.63787V2.63791V2.63796V2.638V2.63805V2.63809V2.63814V2.63819V2.63823V2.63828V2.63832V2.63837V2.63841V2.63846V2.6385V2.63855V2.6386V2.63864V2.63869V2.63873V2.63878V2.63882V2.63887V2.63892V2.63896V2.63901V2.63905V2.6391V2.63914V2.63919V2.63924V2.63928V2.63933V2.63937V2.63942V2.63946V2.63951V2.63956V2.6396V2.63965V2.63969V2.63974V2.63978V2.63983V2.63987V2.63992V2.63997V2.64001V2.64006V2.6401V2.64015V2.64019V2.64024V2.64029V2.64033V2.64038V2.64042V2.64047V2.64051V2.64056V2.64061V2.64065V2.6407V2.64074V2.64079V2.64083V2.64088V2.64093V2.64097V2.64102V2.64106V2.64111V2.64115V2.6412V2.64124V2.64129V2.64134V2.64138V2.64143V2.64147V2.64152V2.64156V2.64161V2.64166V2.6417V2.64175V2.64179V2.64184V2.64188V2.64193V2.64198V2.64202V2.64207V2.64211V2.64216V2.6422V2.64225V2.6423V2.64234V2.64239V2.64243V2.64248V2.64252V2.64257V2.64261V2.64266V2.64271V2.64275V2.6428V2.64284V2.64289V2.64293V2.64298V2.64303V2.64307V2.64312V2.64316V2.64321V2.64325V2.6433V2.64335V2.64339V2.64344V2.64348V2.64353V2.64357V2.64362V2.64366V2.64371V2.64376V2.6438V2.64385V2.64389V2.64394V2.64398V2.64403V2.64408V2.64412V2.64417V2.64421V2.64426V2.6443V2.64435V2.6444V2.64444V2.64449V2.64453V2.64458V2.64462V2.64467V2.64472V2.64476V2.64481V2.64485V2.6449V2.64494V2.64499V2.64503V2.64508V2.64513V2.64517V2.64522V2.64526V2.64531V2.64535V2.6454V2.64545V2.64549V2.64554V2.64558V2.64563V2.64567V2.64572V2.64577V2.64581V2.64586V2.6459V2.64595V2.64599V2.64604V2.64609V2.64613V2.64618V2.64622V2.64627V2.64631V2.64636V2.6464V2.64645V2.6465V2.64654V2.64659V2.64663V2.64668V2.64672V2.64677V2.64682V2.64686V2.64691V2.64695V2.647V2.64704V2.64709V2.64714V2.64718V2.64723V2.64727V2.64732V2.64736V2.64741V2.64746V2.6475V2.64755V2.64759V2.64764V2.64768V2.64773V2.64777V2.64782V2.64787V2.64791V2.64796V2.648V2.64805V2.64809V2.64814V2.64819V2.64823V2.64828V15.9514C0.9 16.7548 1.55265 17.4074 2.35603 17.4074H16.4774C17.6433 17.4074 18.5881 16.4585 18.5881 15.2968V12.6769H18.9401C19.5798 12.6769 20.1 12.1567 20.1 11.517L20.1 9.15176L20.1 9.1511C20.0957 8.51202 19.5761 7.99188 18.9362 7.99188ZM2.64828 2.03519H14.7045C14.8803 2.03519 15.0252 2.17859 15.0253 2.352C15.0253 2.35205 15.0253 2.35209 15.0253 2.35213L15.0218 3.26526H2.64828C2.30995 3.26526 2.03519 2.99051 2.03519 2.65217C2.03519 2.31313 2.31065 2.03519 2.64828 2.03519ZM17.449 15.2929C17.449 15.8299 17.0106 16.2683 16.4735 16.2683H2.35213C2.17686 16.2683 2.0313 16.1255 2.0313 15.9475V4.28839C2.22365 4.36098 2.4308 4.40045 2.64828 4.40045H16.4735C17.0106 4.40045 17.449 4.83886 17.449 5.37592V7.99188H14.3577C13.7179 7.99188 13.1978 8.51204 13.1978 9.15176V11.517C13.1978 12.1567 13.7179 12.6769 14.3577 12.6769H17.449V15.2929ZM18.9609 11.517C18.9609 11.5255 18.9578 11.5313 18.9542 11.535C18.9505 11.5386 18.9447 11.5417 18.9362 11.5417H14.3616C14.3531 11.5417 14.3473 11.5386 14.3436 11.535C14.3399 11.5313 14.3369 11.5255 14.3369 11.517V9.15176C14.3369 9.14623 14.3392 9.13978 14.3444 9.13452C14.3492 9.12957 14.3551 9.12707 14.3616 9.12707H18.9362C18.9418 9.12707 18.9482 9.12944 18.9535 9.13458C18.9584 9.13943 18.9609 9.14533 18.9609 9.15176V11.517Z" fill="#202020" stroke="#202020" stroke-width="0.2"/>
</svg>
